<svg xmlns="http://www.w3.org/2000/svg" width="335" height="269" xmlns:v="https://vecta.io/nano"><style><![CDATA[.B{fill:#bda39f}.C{fill:#886146}.D{fill:#fdfcfb}.E{fill:#4c1e14}]]></style><path d="M0 0v269h335V0H0z" class="D"/><path d="M97 101c-13.427 4.615-20.815 19.215-30.05 28.91-9.753 10.24-20.006 20.03-29.946 30.09-3.689 3.733-10.218 9.136-9.797 14.985.524 7.294 12.014 10.03 17.793 11.335 4.248.96 8.675.68 13 .68.499 60.253 73.079 73.635 120 69.17 9.814-.934 19.49-.373 29-3.273 11.552-3.524 22.433-5.821 32.91-12.357 10.366-6.467 20.356-15.998 24.976-27.54 2.55-6.372 2.727-18.688 6.856-23.682 2.669-3.227 7.594-2.078 11.258-2.619 5.6-.827 14.788-3.544 18.397-8.167 4.073-5.219-1.593-10.865-5.062-14.529-9.99-10.552-20.488-20.694-30.735-31.004-10.015-10.076-19.028-28.03-33.6-31.999 8.162-14.11 26.354-17.796 37.63-4.556 4.39 5.154 4.741 12.496 9.019 17.368 3.333 3.796 7.618 1.552 10.103-1.92 3.481-4.862 3.792-11.17 4.824-16.892 7.916-43.92-43.402-69.04-79.576-53.366-12.319 5.338-21.011 14.264-28.152 25.366-2.553 3.969-4.424 12.37-8.278 14.972-4.218 2.85-14.631 1.224-19.569 1.009-7.69-.335-9.14-7.148-12.236-12.98-4.206-7.924-10.046-15.107-17.189-20.573C95.69 24.262 35.079 39.455 35.079 87c0 3.831.536 8.245 1.3 12 1.119 5.51 4.14 19.225 12.512 16.214 5.258-1.891 5.944-11.623 9.126-15.79C68.289 85.976 89.818 82.71 97 101z" class="B"/><path d="M230 101c9.149-16.465 28.912-20.148 41.621-4.826 3.364 4.055 5.488 15.484 10.497 17.164s7.131-5.892 8.097-9.338C304.644 52.537 245.282 22.7 205 48.865c-8.006 5.2-14.622 12.643-19.019 21.135-3.278 6.33-4.534 14.615-12.981 14.98-6.948.302-19.656 2.508-24.005-4.014-3.542-5.312-5.107-11.672-8.919-16.966C128.655 48.137 109.829 37.846 90 38.594 60.105 39.722 33.422 62.345 37.87 94c.708 5.044 1.277 11.597 4.139 15.941 1.871 2.842 5.488 4.951 8.134 1.736 3.626-4.406 4.387-10.958 8.325-15.662 9.133-10.91 30.493-15.203 38.464-.001 3.586 6.839-11.465 14.444-15.317 19.001A678.727 678.727 0 0 1 43 157c-4.29 4.289-13.319 10.415-13.793 16.957-.992 13.677 25.77 6.439 29.707 13.311 2.663 4.647 2.563 11.586 4.01 16.732 2.545 9.052 7.472 17.446 13.961 24.196 33.807 35.169 103.438 32.393 146.115 18.343 17.391-5.725 33.618-18.363 40.802-35.539 2.838-6.784 2.297-17.936 6.222-23.682 5.451-7.979 25.912.795 30.653-11.411C303.169 169.49 289.851 159.851 286 156c-9.587-9.587-19.59-19.034-28.6-29.171-8.493-9.554-15.606-19.954-27.4-25.829z" class="C"/><path d="M45 113c6.593-2.417 7.182-11.684 11.415-17.01 9.715-12.226 37.487-18.2 43.347 1.97 1.606 5.525-12.167 12.806-15.642 16.504L42.83 159.09c-3.074 3.165-14.147 11.27-12.169 16.535 4.142 11.023 23.764 2.462 29.33 9.643 3.902 5.033 2.498 12.927 4.415 18.732 3.721 11.266 10.505 21.284 19.63 28.88C96.474 243.234 113.4 247.794 129 250.435c37.574 6.362 89.413 7.13 119.561-20.555 9.392-8.624 14.032-18.934 17.539-30.88 1.279-4.358.113-9.905 2.838-13.768 5.372-7.615 25.325 2.008 29.404-9.492 2.015-5.683-7.86-12.992-11.142-16.584l-42.29-45.066c-3.887-3.888-17.142-10.376-14.573-17.004 1.294-3.337 4.857-6.143 7.678-8.148C257.452 75.121 276.223 94.74 281 113c8.597-1.859 9.803-16.587 9.946-24 .414-21.487-13.958-40.973-34.946-46.444-21.466-5.595-45.467-.067-60.399 16.61-5.973 6.672-11.446 26.967-20.605 27.775-6.216.55-20.766 2.38-25.463-2.259-4.422-4.368-6.124-12.364-9.432-17.682-7.146-11.486-18.853-20.904-32.101-24.447C64.683 30.97 23.031 69.853 45 113z" class="E"/><path d="M83 46.464C65.926 49.46 50.543 59.278 46.13 77c-1.007 4.044-4.554 14.102.3 16.914C50.425 96.228 60.852 83.56 65 81.648c9.749-4.494 22.371-3.389 31 2.965 5.138 3.783 8.726 12.47 16.001 11.453 5.362-.75 26.472-5.452 28.867-10.294 2.528-5.11-4.825-14.958-7.708-18.771C121.392 51.44 102.519 43.038 83 46.464M280 95c12.861-3.904.389-28.56-5.13-34.536-17.652-19.115-50.881-19.223-69.87-2.29-4.359 3.887-23.194 23.487-14.682 29.548 4.672 3.326 25.252 9.936 30.678 8.501 6.216-1.644 10.366-10.397 16.004-13.74 15.142-8.979 33.718-.635 43 12.517z" class="C"/><path d="M87 48v1h10l-10-1m146 0v1h12l-12-1M79 49v1h4l-4-1z" class="B"/><path d="M48 90c11.787-5.675 19.428-15.577 34-13.816 7.35.889 13.53 4.684 18.907 9.57 2.52 2.29 4.82 6.506 8.186 7.55 4.747 1.47 12.395-3.164 16.907-4.634 2.922-.953 10.17-1.479 11.867-4.259 1.658-2.715-1.565-7.086-2.798-9.411-4.395-8.285-11.026-15.193-19.069-19.985C86.869 37.661 48 55.241 48 90z" fill="#efc612"/><path d="M100 49v1h4l-4-1m125 0v1h4l-4-1z" class="B"/><path d="M282 90c0-37.769-42.872-51.942-71.996-32.756-6.888 4.537-12.171 11.49-15.894 18.756-1.206 2.353-3.873 6.673-1.463 9.062 2.279 2.259 7.397 2.36 10.353 3.365 4.764 1.62 11.805 6.089 16.91 5.162 3.787-.688 6.496-5.37 9.166-7.834 5.264-4.858 10.73-8.23 17.924-9.43 14.345-2.39 23.56 7.298 35 13.675z" fill="#efc612"/><path d="M248 49v1h4l-4-1M75 50l1 1-1-1m32 0 1 1-1-1m115 0 1 1-1-1m32.667.333.666.334-.666-.334m-182 1 .666.334-.666-.334M109 51l1 1-1-1m111 0 1 1-1-1m36 0 1 1-1-1M70 52l1 1-1-1m41 0 1 1-1-1m106.667.333.666.334-.666-.334m41 0 .666.334-.666-.334m-191 1 .666.334-.666-.334m46 0 .666.334-.666-.334m102 0 .666.334-.666-.334m46 0 .666.334-.666-.334M66 54l1 1-1-1m49 0 1 1-1-1m98.667.333.666.334-.666-.334M263 54l1 1-1-1M64.667 55.333l.666.334-.666-.334M116 55l1 1-1-1m96 0 1 1-1-1m52 0 1 1-1-1M63 56l1 1-1-1m55 0 1 1-1-1m93 0 1 1-1-1m55 0 1 1-1-1M61 57l1 1-1-1m59 0 1 1-1-1m89 0 1 1-1-1m59 0 1 1-1-1m-147 1 1 1-1-1m148 0 1 1-1-1M59 59l1 1-1-1m63 0 1 1-1-1m148 0 1 1-1-1M58 60l1 1-1-1m65 0 1 1-1-1m82 0 1 1-1-1m66 0 1 1-1-1M57 61l1 1-1-1m68 0 1 1-1-1m79 0 1 1-1-1m68 0 1 1-1-1M56 62l1 1-1-1m70.333.667.334.666-.334-.666m77 0 .334.666-.334-.666M273 62l1 1-1-1M55 63l1 1-1-1m219 0 1 1-1-1m-147 1 1 1-1-1m74 0 1 1-1-1M54 65l1 1-1-1m74 0 1 1-1-1m72 0 1 1-1-1m75 0 1 1-1-1m-146 1 1 1-1-1m147 0 1 1-1-1M52 67l1 1-1-1m78 0 1 1-1-1m69 0 1 1-1-1m-1 1 1 1-1-1M51.333 69.667l.334.666-.334-.666M131 69l1 1-1-1m66 0 1 1-1-1m81 0 1 1-1-1m-146 1 1 1-1-1m-81.667 1.667.334.666-.334-.666M133 71l1 1-1-1m63 0 1 1-1-1m83 0v3h1l-1-3M49.333 73.667l.334.666-.334-.666M134 73l1 1-1-1m61 0 1 1-1-1m-.667 1.667.334.666-.334-.666M280 74l1 5h1l-2-5m-144.667 1.667.334.666-.334-.666M48 76v3h1l-1-3m24.667.333.666.334-.666-.334m11 0 .666.334-.666-.334M193 76l1 1-1-1m52 0 1 1-1-1m11.667.333.666.334-.666-.334m-187 1 .666.334-.666-.334m17 0 .666.334-.666-.334M136 77l1 1-1-1m106.667.333.666.334-.666-.334m17 0 .666.334-.666-.334m-193 1 .666.334-.666-.334m23 0 .666.334-.666-.334m47.666.334.334.666-.334-.666m55 0 .334.666-.334-.666m47.334-.334.666.334-.666-.334m23 0 .666.334-.666-.334m-200 1 .666.334-.666-.334m30 0 .666.334-.666-.334M236 79l1 1-1-1m30 0 1 1-1-1M61 80l1 1-1-1m33 0 1 1-1-1m140 0 1 1-1-1m34 0 1 1-1-1m14 0v10l-5-3 4 6h1V80M60 81l1 1-1-1m35 0 1 1-1-1m43 0 1 1-1-1m53 0 1 1-1-1m78 0 1 1-1-1M47 82v8h1l-1-8m11 0 1 1-1-1m39 0 1 1-1-1m135 0 1 1-1-1m39 0 1 1-1-1M57 83l1 1-1-1m41 0 1 1-1-1m92 0 2 3-2-3m82 0 1 1-1-1m1 1 1 1-1-1M54 85l1 1-1-1m84 0 1 1-1-1m136 0 1 1-1-1M53 86l1 1-1-1m80 0v1h5l-5-1m59 0v1h4l-4-1m84 0 1 1-1-1M51 87v2l2-2h-2m52 0 1 1-1-1m26 0v1h3l-3-1m68 0v1l9 2-9-3m29 0 1 1-1-1m-100 1v1h3l-3-1m-78 3 3-2-3 2m56-2 1 1-1-1m19 0v1h3l-3-1m102 0 1 1-1-1m-120 1 1 1-1-1m15.667.333.666.334-.666-.334m88 0 .666.334-.666-.334M224 90l1 1-1-1m-107 1 1 1-1-1m94 0 1 1-1-1m12 0 1 1-1-1m-117 1 1 1-1-1m9 0 1 1-1-1z" class="B"/><path d="M152 92.424c-21.977 2.921-43.108 7.611-60.389 22.547-26.344 22.767-35.347 80.126-10.861 106.858 26.589 29.028 77.899 30.241 114.25 24.872 20.155-2.977 42.14-10.501 55.359-26.872 20.234-25.058 13.664-73.801-5.735-97.829-20.327-25.178-61.8-33.672-92.624-29.576z" class="C"/><path d="m213 92 1 1-1-1m-106 1 1 1-1-1m5.667.333.666.334-.666-.334m103 0 .666.334-.666-.334m-106 1 .666.334-.666-.334m37.333.091c-21.054 2.799-42.007 9.389-57.536 24.577-22.777 22.277-30.201 76.003-8.53 100.909 24.797 28.499 74.322 30.327 109.066 25.801 21.682-2.825 44.905-9.551 59.359-26.997 21.134-25.511 12.151-76.969-9.449-99.699-22.147-23.306-62.451-28.639-92.91-24.59m72.667-.092.666.334-.666-.334z" class="B"/><path d="M160 95.424c-22.305 2.93-44.352 4.638-62.996 19.192C69.199 136.32 58.222 196.968 86.089 222.7c29.737 27.458 78.876 23.905 115.911 19.116 15.896-2.056 35.278-10.409 45.289-23.255 18.819-24.148 13.606-67.198-3.155-91.29-16.712-24.021-55.932-35.55-84.134-31.847z" class="D"/><path d="M39 174c10.576 5.631 22.606 6.245 24.166-8 .327-2.988 4.757-16.307 1.427-17.553-5.065-1.895-13.676 11.009-16.763 13.977-3.71 3.569-7.145 6.621-8.83 11.576m252 0c-2.021-4.774-5.381-8.333-9.004-12-2.825-2.859-12.307-15.668-16.764-14.248-4.884 1.556.865 15.969 1.447 19.248 2.391 13.478 13.881 12.559 24.321 7z" class="C"/><path d="M265 149c.33 15.482 4.831 34.625 24 24v-1c-6.418-7.881-14.695-18.661-24-23m-205 2-19 23c4.757 1.231 12.148 3.704 16.721.821C62.983 171.505 63.62 156.573 63 151h-3z" class="B"/><path d="m61 153-17 20c11.704 2.786 21.805-7.66 17-20m209 2v18h17l-17-18z" class="D"/><path d="M108.001 173.742c-15.156 5.815-5.538 28.755 8.998 23.53 15.311-5.502 6.68-29.545-8.998-23.53m105.089-.173c-14.875 4.409-6.968 28.707 7.909 23.867 16.12-5.245 8.09-28.61-7.909-23.867z" class="B"/><path d="M113 174.748c-13.849.185-13.928 21.042 0 21.042 13.782 0 13.685-21.224 0-21.042m103-.091c-12.915 1.372-11.116 22.024 2 21.166 13.994-.915 12.031-22.656-2-21.166z" class="C"/><path d="M109.055 177.028c-10.466 5.635-1.834 21.616 8.756 15.654 9.364-5.272.836-20.819-8.756-15.654m104.385-.09c-10.907 5.594-2.238 21.001 8.427 16.053 9.632-4.47 1.671-21.232-8.427-16.053z" class="E"/><path d="M157 196c-5.083-2.793-14.602-2.927-11.242 5.945 3.279 8.66 12.961 4.473 19.242 4.473 4.227 0 7.656 2.182 11.999.943 3.811-1.087 7.958-3.825 7.744-8.275-.342-7.126-7.815-3.833-11.425-6.663-3.146-2.466-1.414-7.121-4.06-9.82-8.638-8.811-12.244 8.259-12.258 13.397z" class="B"/><path d="M184 200c-3.917-5.081-7.568-1.555-11.682-4.657-1.78-1.343-7.211-23.261-11.899-8.324-.789 2.515-.47 5.483-2.277 7.624-2.482 2.94-11.684-.39-10.966 5.397.6 4.838 6.933 6.043 10.824 5.776 9.55-.656 19.062 2.085 26-5.816z" class="C"/><path d="M163 183c-2.544 10.656-2.788 14.999-15 15 2.741 9.449 29.339 8.456 34 1-3.407-1.371-8.72-.082-11.436-2.604C165.83 192 170.671 184.674 163 183z" class="E"/></svg>