<svg xmlns="http://www.w3.org/2000/svg" width="298" height="268" xmlns:v="https://vecta.io/nano"><style><![CDATA[.B{fill:#bea49f}.C{fill:#8b6030}.D{fill:#fefdf9}.E{fill:#4e1d0d}.F{fill:#f7ce0f}]]></style><path d="M0 0v268h298V0H0z" class="D"/><path d="M73 27.759C61.677 31.096 53.942 42.767 49.644 53c-10.729 25.544-2.614 49.866-5.698 76-2.457 20.822-7.87 39.38.096 60C63.023 238.131 127.76 241.597 172 237.171c10.479-1.049 20.852-1.845 31-5.009 8.261-2.576 16.636-6.23 24.09-10.616 26.405-15.538 32.763-44.183 30.82-72.546-.735-10.737-4.354-20.053-3.871-31 1.233-27.912 5.783-62.813-18.043-83.71-23.552-20.657-39.91 15.413-58.167 25.7-4.304 2.426-9.252.415-13.829.1-9.535-.657-19.445-.31-29-.075-4.201.103-9.584 2.411-13.561.668C106.7 54.22 92.531 22.002 73 27.759z" class="B"/><path d="M75 29.642c-9.417.81-16.661 10.917-20.981 18.358-8.319 14.326-11.049 35.653-9.93 52 .6 8.756 3.797 19.373 2.57 28-2.74 19.28-7.626 37.468-1.874 57 15.028 51.03 84.849 54.96 128.215 50.83 36.112-3.439 76.013-19.938 82.674-59.83 3.036-18.178-4.578-34.373-3.581-52 1.669-29.489 6.671-66.765-18.094-88.826C213.349 16.78 193.396 52.816 178 62.257c-4.862 2.981-10.778.418-16-.087-11.879-1.15-27.994 4.32-39 1.227-17.558-4.936-26.91-35.568-48-33.755z" class="C"/><path d="M72 31.728C61.486 35.468 54.53 48.023 51.49 58c-4.045 13.284-6.062 28.037-5.45 42 .435 9.942 3.018 20.01 1.775 30-2.58 20.719-8.006 41.52 1.38 61.715C70.108 236.716 140.431 241.523 183 232.51c8.914-1.887 17.384-3.007 26-6.273 32.341-12.261 47.611-38.261 45.96-72.237-.463-9.514-5.339-19.491-4.634-29 2.12-28.563 7.423-68.584-17.765-89.43-10.331-8.55-20.139-2.042-28.846 5.469-7.924 6.834-17.174 19.563-26.715 23.554-8.648 3.616-25.422-.703-35-.59-6.282.076-15.938 3.405-21.715.255-11.057-6.031-19.746-19.096-30-26.722-5.135-3.82-11.589-8.191-18.285-5.808z" class="E"/><path d="M53 106c8.506-2.961 13.881-14.134 20.99-19.764C81.55 80.246 90.081 75.885 99 72.272c2.793-1.131 9.488-2.343 10.578-5.55 1.198-3.526-3.322-7.347-5.504-9.422C98.028 51.55 85.115 36.723 76 37.336c-6.746.455-12.27 8.43-15.367 13.664C52.6 64.574 47.37 90.97 53 106m189 0h3c3.963-16.648 1.219-38.94-6.782-54-2.885-5.432-8.5-13.69-15.218-14.578-9.438-1.248-21.878 13.786-27.986 19.503-2.299 2.152-7.485 5.855-6.277 9.657 1.451 4.566 17.008 8.381 21.263 10.421 13.107 6.283 24.329 16.68 32 28.997z" class="C"/><path d="M71 43c5.774-2.26 8.713-.777 14 2-3.502-5.455-9.535-7.042-14-2m136 7c4.218-2.787 8.761-7.824 14-8.472 7.894-.977 13.471 10.602 16 16.472 1.216-6.139-7.806-17.86-14.17-18.564-5.596-.618-13.178 6.203-15.83 10.564z" class="B"/><path d="M58 99c3.555-12.199.673-30.086 11.225-39.685C75.708 53.417 92.705 63.575 90 71v1l16-5c-1.855-5.914-5.518-8.91-10-13-4.862-4.438-11.996-12.44-19-13.087C64.702 39.776 60.584 59.803 58.139 68c-2.04 6.838-7.266 26.38-.139 31m135-32 13 4c2.751-9.715 17.866-18.555 25.28-8.956C237.347 69.899 236.975 81.72 239 91l-1 1-5-3 10 8c-.011-16.846-.612-40.488-14.104-52.67C218.459 34.906 193.886 55.648 193 67z" class="F"/><path d="m69 43 1 1-1-1m-1 1 1 1-1-1m-.667 1.667.334.666-.334-.666M86 45l1 1-1-1m1 1 1 1-1-1m-21 1 1 1-1-1m22 0 2 2v-2h-2m-23 1-1 2h2l-1-2m25.667 1.333.666.334-.666-.334M92 50l1 1-1-1m113 0 1 1-1-1M63 51l1 1-1-1m30 0 1 1-1-1m111 0 1 1-1-1M94 52l1 1-1-1m109 0 1 1-1-1M62 53l1 1-1-1m33 0 1 1-1-1m107 0 1 1-1-1M61.333 54.667l.334.666-.334-.666M96 54l5 4-5-4m105 0 1 1-1-1m-1 1 1 1-1-1M60.333 56.667l.334.666-.334-.666z" class="B"/><path d="M60 94h1c8.731-10.256 19.646-16.234 31-23-2.217-7.755-14.563-18.874-22.775-12.411C61.637 64.559 57.455 85.145 60 94z" class="D"/><path d="m199 56 1 1-1-1z" class="B"/><path d="m205 70 33 22 1-1c-1.798-15.365-6.387-45.812-26.999-28.13-2.621 2.248-4.959 4.355-7.001 7.13z" class="D"/><path d="m198 57 1 1-1-1M59 58l-3 16h1l2-16m42 0 1 1-1-1m1 1 1 1-1-1m94 0 1 1-1-1m42 0 1 1-1-1m-135 1 1 1-1-1m92 0 1 1-1-1m44.333.667.334.666-.334-.666M104 61l1 1-1-1m89.667.333.666.334-.666-.334M105 62l1 5h-4v1l6-1-3-5m87 0-2 5c3.012-.645 3.498-2.387 2-5m48 1v4h1l-1-4m-47 4v1h3l-3-1m-93.333 1.333.666.334-.666-.334m98 0 .666.334-.666-.334M241 68l2 29c-14.969-4.562-21.952-24.364-40-26v1c15.859 6.603 29.273 17.671 40 31 4.665-6.838 1.524-27.682-2-35M95 70v1l4-1h-4z" class="B"/><path d="M139 69.425c-24.168 3.29-47.093 8.036-66 24.76-26.448 23.395-33.702 82.627-9.116 109.2 25.644 27.716 75.997 29.642 111.116 25.329 21.845-2.683 45.933-9.446 60.791-26.714 22.722-26.408 15.401-77.804-6.092-103C209.524 75.349 169.155 65.32 139 69.425z" class="C"/><path d="m200 69 3 2-3-2M58 99l37-27c-11.025-3.217-34.294 17.095-37 27z" class="B"/><path d="m207 71 1 1-1-1z" class="F"/><path d="M132 72v1h34l-34-1m-9 1v1h5l-5-1z" class="B"/><path d="M62 196c14.588-9.518 31.983-3.554 45.961-11.558 10.143-5.808 10.103-17.536 15.966-26.272 8.838-13.172 30.073-15.756 44.034-9.2 14.653 6.881 11.5 27.887 25.079 35.194 13.302 7.158 32.521-1.101 43.96 10.836 19.601-30.099 7.881-85.854-22-105.455-38.036-24.952-108.569-25.719-141.83 8.545-12.335 12.71-17.832 32.752-20.3 49.91-2.512 17.475.164 32.797 9.13 48z" class="F"/><path d="M171 73v1h4l-4-1M55 74v9h1l-1-9m64 0v1h3l-3-1m57 0v1h3l-3-1m-60 1v1h3l-3-1m63 0v1h3l-3-1m-67 1v1h3l-3-1m71 0v1h4l-4-1m-80 3v1l8-2-8 1m85-2v1h3l-3-1m3.667 1.333.666.334-.666-.334M193 79v1h3l-3-1m-94 1v1h4l-4-1m97 0v1h3l-3-1m-99 1 1 1-1-1m103.667.333.666.334-.666-.334m-105 1 .666.334-.666-.334M202 82l1 1-1-1M93.667 83.333l.666.334-.666-.334m110 0 .666.334-.666-.334M90 84v1h3l-3-1m116.667.333.666.334-.666-.334M89 85l-1 2h2l-1-2m119 0 3 2-3-2M54 87c0 5.346-1.058 11.026 3 15l1-3-4-12m32.667.333.666.334-.666-.334m125 0 .666.334-.666-.334m-127 1 .666.334-.666-.334m129 0 .666.334-.666-.334M82.333 89.667l.334.666-.334-.666M215 89l1 1-1-1m1 1 1 1-1-1M80.667 91.333l.666.334-.666-.334m137 0 .666.334-.666-.334M78 92v2l2-2h-2m141 0 1 1-1-1m1 1 1 1-1-1M76.667 94.333l.666.334-.666-.334M221 94l1 1-1-1M75 95l1 1-1-1m147 0 1 1-1-1M74 96l1 1-1-1m149 0 2 2v-2h-2M73 97l1 1-1-1m-1 1 1 1-1-1m153 0 1 1-1-1M71 99l1 1-1-1m155 0 1 1-1-1m-155.667 1.667.334.666-.334-.666M227 100l1 1-1-1m1 1 1 1-1-1m-159 1 1 1-1-1m160.333.667.334.666-.334-.666M68 103l1 1-1-1m-1 1 1 1-1-1m163 0 1 1-1-1m1 1 1 1-1-1m-165 1 1 1-1-1m166 0 1 1-1-1m-167 1-1 3 1-3m168.333 1.667.334.666-.334-.666m-170 2 .334.666-.334-.666m171 0 .334.666-.334-.666M235 112l1 1-1-1m-172.667 1.667.334.666-.334-.666m174 0 .334.666-.334-.666M61 115l1 1-1-1m-.667 1.667.334.666-.334-.666M237 116v3h1l-1-3m1.333 3.667.334.666-.334-.666M59 120v3h1l-1-3m180.333 1.667.334.666-.334-.666M58 124l-1 5h1v-5m182 0v3h1l-1-3m1 4v4h1l-1-4m-185 1v3h1l-1-3m186 3 1 6h1l-2-6m-187 1v3h1l-1-3m-1 5v3h1l-1-3m190 1v4h1l-1-4m-191 2v3h1l-1-3m-1 4v6h1l-1-6z" class="B"/><path d="M143 146.439c-23.046 3.6-18.378 23.555-33.171 36.028-8.321 7.016-22.643 4.734-32.829 6.454-4.204.709-10.9 1.613-12.783 6.169-3.705 8.962 19.914 19.102 25.783 21.486 30.331 12.322 67.117 11.404 99 6.215 13.614-2.216 28.403-8.486 38.831-17.61 2.883-2.522 11.125-9.07 6.636-13.173-10.587-9.675-30.69-.836-42.374-8.978-8.471-5.903-9.066-16.9-14.087-25.03-7.305-11.829-22.216-13.559-35.006-11.561z" class="D"/><path d="M245 147v4h1l-1-4m-152 6v1l12 2c-3.543-3.536-7.217-4.371-12-3m105 1v1l9-2-9 1z" class="B"/><path d="M94.004 153.657c-14.944 4.538-7.448 27.288 6.995 22.296 14.057-4.859 6.99-26.544-6.995-22.296m107 .112c-15.147 5.079-6.779 27.619 7.906 21.963 13.23-5.095 5.968-26.615-7.906-21.963z" class="C"/><path d="m208 153 1 1-1-1m38 0v18h1l-1-18m-155 1 1 1-1-1m119 0 1 1-1-1m-121 1 1 1-1-1m107 0 1 1-1-1m16 0 1 1-1-1m-124 1 1 1-1-1z" class="B"/><path d="M93.093 156.742c-11.9 4.95-2.14 22.2 8.733 16.81 11.037-5.473 2.463-21.466-8.733-16.81z" class="E"/><path d="M139 165v1l3 8c-2.873 0-7.069-.695-9.566 1.028-8.148 5.62 4.447 12.784 9.566 12.917 6.336.166 18.33 1.658 23.956-1.263 11.936-6.197.729-12.681-6.956-12.682 1.105-3.112 3.298-6.572 2.638-9.996-2.735-14.203-17.97-6.071-22.638.996m56-9 1 1-1-1z" class="B"/><path d="M200.133 156.573c-10.239 3.369-3.249 21.154 7.696 17.359 12.322-4.272 4.551-21.389-7.696-17.359z" class="E"/><path d="m213 156 1 1-1-1m-162 1v8h1l-1-8m55 0 1 1-1-1m108 0 1 1-1-1m-127 1 1 1-1-1m20 0 1 1-1-1z" class="B"/><path d="M158 177c-.857-4.729 2.631-9.562.948-13.892-2.499-6.426-13.683-6.432-16.19-.003-1.452 3.722 2.313 7.266.94 10.623-1.831 4.477-11.992-.823-11.232 6.311.922 8.655 30.746 8.177 34.93 2.733 6.089-7.923-5.252-6.866-9.396-5.772z" class="C"/><path d="m194 158 1 1-1-1m-108 1 1 1-1-1m22.333.667.334.666-.334-.666M193 159l1 1-1-1m22.333.667.334.666-.334-.666M85 160v3h1l-1-3z" class="B"/><path d="m135 177-2 4c7.287 4.741 18.423 4.062 26.961 3.902 2.607-.049 7.464-1.62 7.407-4.963-.075-4.357-9.225-.361-11.326-5.002-2.109-4.658 5.769-13.075-3.097-14.705-14.937-2.745-4.09 10.161-7.745 15.524-2.401 3.523-6.811 1.787-10.2 1.244z" class="E"/><path d="M192 161v3h1l-1-3m24 1v6h1l-1-6m-107 1v5h1l-1-5m83 3v3h1l-1-3m-107 1v3h1l-1-3m23.333 2.667.334.666-.334-.666m107 0 .334.666-.334-.666M86 170l1 1-1-1m107 0 1 1-1-1m-141 1v6h1l-1-6m35 0 1 1-1-1m20 0 1 1-1-1m87 0 1 1-1-1m20 0 1 1-1-1m-125.667 1.667.334.666-.334-.666M106 172l1 1-1-1m89 0 1 1-1-1m18 0 1 1-1-1m32 0v4h1l-1-4m-140 1 1 1-1-1m107 0 1 1-1-1m-123 1 1 1-1-1m15 0 1 1-1-1m92 0 1 1-1-1m-105.333 1.333.666.334-.666-.334M103 175l1 1-1-1m95 0 1 1-1-1m12 0 1 1-1-1m-118 1v1h10l-10-1m108 0v1h9v-1h-9m-146.667 1.667.334.666-.334-.666M244 178v3h1l-1-3m-189.667 2.667.334.666-.334-.666M243 181l-2 8h1l1-8m-188 2v3h1l-1-3m1 3 3 5-3-5m184.333 3.667.334.666-.334-.666M59 191c3.083 17.081 24.502 25.687 39 30.515 32.478 10.816 72.502 8.978 105-.659 14.438-4.282 32.553-14.491 37-29.856h-1c-23.507 36.988-77.201 37.798-116 33.155-12.78-1.529-25.305-3.985-37-9.658-12.1-5.869-18.411-13.811-27-23.497z" class="B"/></svg>