<svg xmlns="http://www.w3.org/2000/svg" width="288" height="250" xmlns:v="https://vecta.io/nano"><style><![CDATA[.B{fill:#d05653}.C{fill:#855954}.D{fill:#d4a39e}.E{fill:#fde9e6}.F{fill:#511a15}]]></style><path d="M0 0v250h288V0H0z" class="E"/><path d="M47 30.464c-5.55.972-11.575 1.627-17 3.09-23.236 6.262-1.65 43.3 6.584 54.442 2.798 3.786 9.718 8.722 8.583 14.004-1.49 6.937-6.109 14.109-8.346 21-6.232 19.197-9.373 43.129-4.264 63 5.14 19.988 21.606 34.891 39.443 43.694 33.122 16.348 77.386 16.798 113 9.676 30.472-6.093 61.363-23.89 68.614-56.37 2.876-12.882 2.015-28.039.085-41-1.367-9.178-4.532-19.365-7.904-28-1.553-3.975-5.964-9.625-5.369-14 .605-4.449 5.838-8.486 8.365-11.985 7.087-9.815 26.363-39.105 13.981-50.544-4.662-4.307-10.899-4.46-16.772-5.566-18.053-3.398-37.31-1.616-51.833 10.938-5.506 4.76-9.179 16.027-15.352 19.039-4.362 2.128-14.877-2.014-19.815-2.596-10.045-1.186-21.955-1.186-32 0-5.304.626-13.941 3.98-18.985 2.81-6.077-1.408-10.511-13.313-15.019-17.668C81.496 33.32 62.824 27.692 47 30.464z" class="D"/><path d="M49 32.424c-5.337.702-10.748.772-16 2.09C8.601 40.634 28.93 74.847 38.131 87c3.05 4.029 10.243 9.36 9.062 15-1.59 7.595-6.681 15.452-9.107 23-5.706 17.76-7.973 37.546-4.621 56C44.675 242.743 129.61 245.738 178 238.573c34.055-5.043 66.824-22.405 74.482-58.573 2.16-10.202 1.564-21.727.229-32-1.409-10.833-4.454-21.746-8.146-32-1.585-4.401-6.328-11.015-6.263-15.576.065-4.649 6.167-9.107 8.789-12.514 7.408-9.626 14.563-22.79 16.583-34.91.714-4.28 1.296-11.072-2.108-14.351-4.763-4.59-13.362-5.106-19.566-5.649-16.962-1.485-33.447-.575-46.996 11.21-5.479 4.765-9.328 16.514-15.623 19.337C174.025 65.95 165.556 61.5 160 61.09c-11.458-.844-22.542-1.066-34 .08-5.768.578-12.17 3.391-17.985 2.562-7.07-1.008-12.655-14.852-17.819-19.692C79.649 34.155 63.088 30.574 49 32.424z" class="C"/><path d="M43 34.425c-5.262.718-14.466 1.654-18.107 6.005C16.155 50.876 32.593 76.4 38.51 85c3.17 4.608 12.006 10.82 10.388 17-6.731 25.717-19.468 48.011-14.432 76 10.89 60.532 91.383 67.298 140.535 59.561 44.965-7.078 82.79-34.659 76.816-84.561-1.352-11.288-4.067-23.333-7.997-34-1.97-5.35-7.528-13.355-7.246-18.996.238-4.793 5.595-8.74 8.398-12.2 7.706-9.51 13.083-21.035 16.183-32.804 1.305-4.952 3.346-11.182-.923-15.411-9.663-9.574-38.994-7.204-50.231-2.432-7.562 3.212-14.186 7.635-19.325 14.132-3.191 4.035-4.914 11.155-9.719 13.493-5.637 2.742-16.915-.955-22.956-1.782-8.718-1.194-18.226-1.85-27-.71-7.602.987-17.313 4.522-24.957 2.968C99.38 63.903 93.434 48.868 88 44.21c-12.094-10.367-29.79-11.861-45-9.785z" class="F"/><path d="M31 53h1c-.035-9.773 7.002-10.396 15-11.17 13.073-1.265 25.67.273 36 9.355 3.265 2.872 11.143 9.59 9.579 14.71C90.394 73.048 74.799 74.177 70 80c7.054-3.604 17.901-5.162 23.678-10.649 5.5-5.223-3.891-15.53-7.771-19.141C75.029 40.087 60.939 39.673 47 40.015 37.694 40.243 29.781 42.36 31 53m182 25v-1l-22-10c7.827-18.14 25.721-27.562 45-25.285 7.492.884 16.517-.238 18 9.285 3.823-9.49-9.591-10.92-16-10.996-13.07-.156-25.277-.24-35.999 8.464-10.81 8.775-16.614 18.408-2.001 24.777 4.35 1.895 8.421 3.465 13 4.755z" class="C"/><path d="M38 47c8.285 3.127 16.636 5.368 23.572 11.29 4.661 3.979 7.756 8.869 11.656 13.478 4.371 5.165 21.964-1.732 19.639-8.783C87.95 48.075 69.142 41.495 55 41.043c-5.805-.185-14.622-.103-17 5.957z" class="D"/><path d="M59 41v1h3l-3-1m165 0v1h4l-4-1z" class="B"/><path d="M228 41.439c-11.839 1.27-22.313 4.385-30.482 13.731-8.461 9.681-1.492 19.979 11.349 18.918 4.716-.39 10.79-11.958 14.557-15.164 4.854-4.13 19.768-7.483 22.4-12.393 2.887-5.384-15.16-5.377-17.824-5.092z" class="D"/><path d="m233.667 41.333.666.334-.666-.334M77 76v-1C63.274 62.368 57.112 52.383 38 47l4-4c-8.432-2.982-10.748 5.593-9.396 12 1.934 9.162 11.163 31.839 21.397 34.208C61.705 90.99 69.847 78.003 77 76M66.667 42.333l.666.334-.666-.334m151 0 .666.334-.666-.334M244 42v1c1.86 2.221 1.862 3.692-1.078 5.15-7.044 3.493-14.19 5.517-20.346 10.774C217.035 63.658 214.05 70.03 209 75c4.967 3.918 15.387 15.254 21.996 14.538 4.437-.48 8.044-6.245 10.409-9.538 6.794-9.46 22.047-35.071 2.595-38z" class="B"/><path d="M47 47c12.312 2.676 24.274 12.266 29 24l16-5v-2L81 50c-9.019-1.738-27.061-13.152-34-3m147 20c3.592-.123 5.646-.682 7 3h9c5.678-12.82 17.181-15.789 27-24-13.205-8.022-40.72 5.319-43 21z" class="E"/><path d="m78 47 1 1-1-1m124 3 1 1-1-1m-1 1 1 1-1-1m-1 1 1 1-1-1z" class="B"/><path d="m32.333 54.667.334.666-.334-.666M253 54l1 1-1-1m-1 4 1 1-1-1z" class="C"/><path d="m91 60 1 1-1-1z" class="B"/><path d="m250 62 1 1-1-1m-.667 2.667.334.666-.334-.666z" class="C"/><path d="m191 66 1 1-1-1z" class="B"/><path d="m37 67 1 1-1-1m211 0 1 1-1-1z" class="C"/><path d="m91 68 1 1-1-1z" class="B"/><path d="M128 68.464c-22.388 3.92-45.29 8.59-62.83 24.34-28.242 25.364-36.808 86.939-9.13 115.181 28.006 28.575 85.078 30.02 121.96 23.081 18.561-3.493 39.599-9.607 52.714-24.159 24.25-26.908 18.767-79.872-3.334-106.903-21.208-25.94-67.107-37.19-99.38-31.54M38 69l1 1-1-1z" class="C"/><path d="m89 69 1 1-1-1z" class="B"/><path d="m39.333 70.667.334.666-.334-.666z" class="C"/><path d="m87 70 1 1-1-1z" class="B"/><path d="M133 70.424c-22.455 2.95-45.463 6.341-63.71 21.287-28.736 23.534-39.984 84.192-13.532 113.119C81.06 232.501 131.122 234.886 166 230.715c20.286-2.427 43.109-7.111 58.996-20.924 30.641-26.641 22.596-88.567-4.997-114.748C198.849 74.976 161.432 66.69 133 70.424z" class="D"/><path d="m153 70 1 1-1-1z" class="B"/><path d="m246 70 1 1-1-1z" class="C"/><path d="m84 71 1 1-1-1m38 0 1 1-1-1m41 0 1 1-1-1z" class="B"/><path d="m40 73 1 1-1-1z" class="C"/><path d="m80 73 1 1-1-1z" class="B"/><path d="M91 81c-3.854 6.302-17.06 9.817-23.09 15.304-12.493 11.37-18.09 27.806-21.64 43.866-4.129 18.675-3.544 43.512 8.016 59.391 22.29 30.616 78.316 34.002 111.714 27.779 6.183-1.153 12.895-.153 19-1.885 12.395-3.515 24.881-8.033 35.714-15.24 4.709-3.132 7.438-8.539 12.286-11.215 1.439-7.2 6.54-13.658 7.775-21 4.301-25.557-2.554-61.763-21.576-80.119C212.756 91.663 204.296 84.508 195 84v-3l-31-7.776-40-.18L91 81z" class="E"/><path d="m245 73 1 1-1-1z" class="C"/><path d="m78 74 1 1-1-1m100 0 1 1-1-1m28 0v1h3l-3-1z" class="B"/><path d="m41 75 1 1-1-1z" class="C"/><path d="m98 76 1 1-1-1m-2 1 1 1-1-1z" class="B"/><path d="m43 78 1 1-1-1z" class="C"/><path d="m94 78 1 1-1-1m100 1 1 1-1-1z" class="B"/><path d="m44 80 1 1-1-1z" class="C"/><path d="m197 80 1 1-1-1z" class="B"/><path d="m45 81 1 1-1-1m1 1 1 1-1-1z" class="C"/><path d="m82 83 1 1-1-1z" class="B"/><path d="m237 84 1 1-1-1M62 85l1 1-1-1z" class="C"/><path d="m206 85 1 1-1-1z" class="B"/><path d="m49 86 1 1-1-1z" class="C"/><path d="m77 86 1 1-1-1m133 1 1 1-1-1m1 1 1 1-1-1z" class="B"/><path d="m52 89 1 1-1-1m4.667.333.666.334-.666-.334z" class="C"/><path d="m212 89 1 1-1-1z" class="B"/><path d="m233 89 1 1-1-1M53 90v1h3l-3-1m176 0v1h4l-4-1z" class="C"/><path d="m221 96 1 1-1-1M63 97l1 1-1-1m168 13 1 1-1-1m3 6 1 1-1-1m-185 4 1 1-1-1m-2 8 1 1-1-1m-1 2 1 1-1-1m193 2 1 1-1-1m-194 1 1 1-1-1m195 1 1 1-1-1m-196 3 1 1-1-1m197 2 1 1-1-1z" class="B"/><path d="M104 168h-1c-1.193-4.933-1.73-9.82-6.376-12.879-8.828-5.813-23.295-.723-23.163 10.88C73.606 178.816 93.92 187.936 99 174h1c0 11.304-.252 22.059 8.725 30.53 15.894 14.999 56.05 14.062 70.452-2.638C186.209 193.737 186 184.076 186 174h1c4.738 10.049 13.601 6.157 22 5 2.397-5.823 5.723-11.352 3.276-17.91-3.319-8.895-17.106-10.619-23.832-4.657-4.551 4.034-4.443 8.98-4.444 14.567-5.669-13.315-11.302-22.633-26-27.494-17.98-5.946-53.429.863-54 24.494z" class="D"/><path d="m43 144 1 1-1-1m90 0 1 1-1-1z" class="B"/><path d="M134 144.518c-22.813 4.837-44.565 37.116-23.815 57.269 12.317 11.962 35.43 10.658 50.815 7.198 22.529-5.066 27.616-31.177 15.591-48.97-8.818-13.048-27.498-18.698-42.591-15.497z" class="C"/><path d="m151 144 1 1-1-1m-21 1 1 1-1-1z" class="B"/><path d="M135 146.514c-21.666 4.363-43.722 34.035-23.624 53.856 11.298 11.142 34.179 10.227 48.624 7.294 22.338-4.536 26.438-30.632 14.752-47.625-8.085-11.758-26.263-16.242-39.752-13.525z" class="F"/><path d="m157 146 1 1-1-1m-33 1 1 1-1-1m39 1 1 1-1-1m-44 2 1 1-1-1m-2 1 1 1-1-1z" class="B"/><path d="M141 153.464c-17.338 1.524-42.276 23.398-24.532 41.196 8.549 8.573 24.367 8.29 35.532 7.169 20.629-2.07 28.717-22.572 15.507-38.644-6.387-7.771-16.754-10.579-26.507-9.721z" class="C"/><path d="m170 153 1 1-1-1m1 1 1 1-1-1z" class="B"/><path d="M84.004 155.742c-14.733 5.681-5.315 28.058 8.977 21.74 13.101-5.791 4.387-26.893-8.977-21.74z" class="C"/><path d="m92 155 1 1-1-1m44 0 1 1-1-1z" class="B"/><path d="M137 155.439c-15.289 2.413-33.224 24.114-18.786 38.336 7.708 7.594 24.814 7.529 34.786 5.9 18.64-3.045 25.457-22.437 11.815-36.571-6.949-7.199-18.22-9.179-27.815-7.665z" class="D"/><path d="m148.667 155.333.666.334-.666-.334M194 155l1 1-1-1z" class="B"/><path d="M195.004 155.728c-14.354 5.179-6.452 27.31 7.981 22.004 14.038-5.161 6.049-27.067-7.981-22.004z" class="C"/><path d="m41 156 1 1-1-1m90 0 1 1-1-1m23 0 1 1-1-1z" class="B"/><path d="M198.039 156.783c-12.465.632-11.199 21.182.976 20.064 12.21-1.121 11.745-20.709-.976-20.064m-114.02 1.075c-11.469 4.821-3.75 23.452 7.962 18.204 11.366-5.094 3.871-23.178-7.962-18.204z" class="F"/><path d="M118 192c15.175 6.781 34.648 6.319 50 0 1.026-8.116 3.279-26.125-8-28-3.265-11.161-26.469-6.628-33.583-2.324-11.067 6.695-9.738 19.199-8.417 30.324z" class="E"/><path d="m174 157 1 1-1-1m-95 1 1 1-1-1m111 0 1 1-1-1m-112 1 1 1-1-1m82 0 1 1-1-1m16 0 1 1-1-1m-56 4 1 1-1-1m67 0 1 1-1-1m-82 3 1 1-1-1z" class="B"/><path d="M129.005 167.873c-10.364 3.076-8.643 26.629 4.851 22.81 10.19-2.884 7.799-26.565-4.851-22.81m23.42 0c-10.891 3.049-8.159 26.12 4.446 22.812 10.415-2.733 7.867-26.26-4.446-22.812z" class="D"/><path d="m99 169 1 1-1-1m17 0 1 1-1-1m94 0 1 1-1-1z" class="B"/><path d="M129.213 171.047c-6.44 3.521-4.586 20.855 3.559 16.715 5.589-2.84 4.506-21.124-3.559-16.715m23.065 0c-5.761 3.345-2.892 20.628 4.494 16.867 6.179-3.147 3.319-21.404-4.494-16.867z" class="C"/><path d="m98 171 1 1-1-1m6 0 1 1-1-1z" class="B"/><path d="M129 187c7.204-2.531 6.189-8.593 5-15-7.898.63-6.418 9.044-5 15m23-15c-.369 1.99-.795 3.978-.907 6.005-.986 17.848 16.074-4.795.907-6.005z" class="F"/><path d="m170 173 1 1-1-1m-67 2 1 1-1-1m33 1 1 1-1-1m35 1 1 1-1-1m71 2 1 1-1-1m-199 1 1 1-1-1z" class="B"/><path d="M75 181.518c-6.224.327-18.226 5.401-7.905 11.65 3.415 2.068 10.025 1.12 13.89.773C93.4 192.826 83.86 181.052 75 181.518z" class="D"/><path d="m149.333 181.667.334.666-.334-.666z" class="B"/><path d="M197 189c6.453 4.563 12.147 6.005 19.996 4.177 2.856-.666 6.982-2.343 6.172-6.084-2.364-10.926-22.958-4.895-26.168 1.907z" class="D"/><path d="m113.333 182.667.334.666-.334-.666M241 184l1 1-1-1m-106 1 1 1-1-1m36 1 1 1-1-1m11 0 1 1-1-1m-31 1 1 1-1-1m89 0 1 1-1-1m-195 1 1 1-1-1m58 0 1 1-1-1m29 0 1 1-1-1m20 0 1 1-1-1m-48 4 1 1-1-1m-56 2 1 1-1-1m57 1 1 1-1-1m60 0 1 1-1-1m-44 1 1 1-1-1m7 2 1 1-1-1m29 0 1 1-1-1m77 0 1 1-1-1m-103 1 1 1-1-1m23 0 1 1-1-1m23 0 1 1-1-1m56 1 1 1-1-1m-58 1 1 1-1-1m57 0 1 1-1-1m-1 1 1 1-1-1m-58 1 1 1-1-1m-60 1 1 1-1-1m4 2 1 1-1-1m49 1 1 1-1-1m-45 1 1 1-1-1m42 0 1 1-1-1m-37 1 1 1-1-1m32 0 1 1-1-1m-27 1 1 1-1-1m22 0 1 1-1-1m-13 1v1h7l-7-1m59 12 1 1-1-1m-4 1 1 1-1-1m-10 3 1 1-1-1m-6 1 1 1-1-1m-69 1 1 1-1-1m64.667.333.666.334-.666-.334M116 230l1 1-1-1m51.667.333.666.334-.666-.334M134 231v1h20l-20-1z" class="B"/></svg>