<svg xmlns="http://www.w3.org/2000/svg" width="344" height="284" xmlns:v="https://vecta.io/nano"><style><![CDATA[.B{fill:#967164}.C{fill:#7d5343}.D{fill:#c7aa8f}.E{fill:#4b1c12}]]></style><path d="M0 0v284h344V0H0z" fill="#fdf8f7"/><path d="M66 190c-9.092-.743-14.304-3.955-21 4v1c5.657 7.773 20.177 4.341 21 15-4.964.642-21.891 3.455-17.878 11.811 4.436 9.237 16.213-1.985 22.396 3.546 7.568 6.772 11.425 17.234 19.732 24.134 19.738 16.394 49.7 22.373 74.75 23.47 31.193 1.366 69.263-2.335 95-21.626 9.811-7.354 13.789-19.478 22.546-26.692 5.804-4.782 18.035 6.567 21.672-2.831C307.74 212.71 291.548 210.705 286 210c1.858-11.487 19.687-4.858 20.824-15.001 1.117-9.957-12.509-4.724-16.691-6.352-3.703-1.441-3.945-6.322-4.403-9.647-.307-2.228-.879-4.662.312-6.74 2.315-4.038 8.122-5.063 11.958-6.985 5.715-2.862 11.248-7.128 15.829-11.564 18.972-18.374 23.125-51.32 11.642-74.711-20.142-41.027-71.27-46.36-105.186-19.495-6.453 5.112-12.145 11.372-16.293 18.495-2.105 3.616-3.673 10.71-7.271 12.972-7.013 4.41-26.488 1.367-34.72 1.009-7.607-.332-8.834-7.311-12.043-12.981-3.87-6.836-9.144-13.068-15.125-18.16C105.48 35.847 58.553 35.325 34.69 68c-16.606 22.738-19.317 55.737-1.181 78.576 4.995 6.291 10.533 12.06 17.452 16.25 4.6 2.787 12.263 4.43 15.01 9.348 2.471 4.424.03 12.812.029 17.826z" class="D"/><path d="M65 47v1c5.14-.449 9.839-2.709 15-2.96 19.802-.964 39.017 6.266 53.996 19.26 5.877 5.099 10.85 11.958 14.703 18.7 3.101 5.425 3.392 10.59 10.301 12-8.599-7.126-11.369-18.751-19.09-26.996C119.934 46.674 92.552 40.684 65 47m129 47v1c10.327-2.308 17.018-22.808 25.17-30.41C239.554 45.58 262.311 44.206 288 48c-22.242-13.996-59.286 2.69-74.711 20.015C206.742 75.368 203.128 90.309 194 94z" class="B"/><path d="M25 122h1c0-9.644-1.298-19.497 1.043-29C33.012 68.777 53.56 50.318 78 46.325c9.99-1.633 19.19 1.9 29 2.675-31.435-16.836-69.663 9.113-79.9 39-3.898 11.38-2.34 22.378-2.1 34m221-74v1l24-2.996L289 49c-14.109-7.67-28.428-2.272-43-1z" class="C"/><path d="M49 194c3.534 4.019 32.612 8.801 16.966 18.995C60.57 216.51 54.464 214.826 51 221c6.375 1.465 14.33-3.963 19.812-1.174 6.373 3.243 9.58 15.175 14.474 20.555 10.423 11.458 26.011 18.54 40.714 22.526 37.21 10.087 85.889 9.198 121-7.694 9.232-4.441 18.038-11.151 24.088-19.502 3.279-4.527 5.533-12.725 10.291-15.798 5.194-3.354 14.204 2.966 20.621 1.087-1.758-4.595-31.412-11.714-14.941-20.822 5.457-3.018 12.125-.305 15.941-6.178-4.74-1.401-14.781 1.193-18.142-2.523-2.836-3.135-1.565-8.649-2.183-12.477-.473-2.934-2.026-6.038-.607-8.945 2.115-4.335 8.004-5.116 11.932-7.067 7.708-3.828 14.731-8.498 20.335-15.162 23.631-28.104 15.859-74.205-15.335-93.487-26.203-16.197-62.233-7.506-82.961 13.676-5.662 5.786-12.272 26.017-20.054 27.266-9.28 1.49-20.51-.293-29.985-.281-3.627.004-8.618 1.02-11.867-.948-3.502-2.121-3.958-6.67-5.651-10.052-3.113-6.218-7.32-12.397-12.399-17.157-26.763-25.081-70.64-29.53-96.112-.039-20.634 23.89-19.342 62.466 2.468 84.907 6.448 6.634 25.944 11.123 28.73 19.379 1.377 4.086-1.273 19.519-5.397 21.445-4.753 2.22-11.582-.069-16.772 1.465z" class="E"/><path d="M60 49v1l4-1h-4m229-1v1l8 3v-1l-8-3z" class="B"/><path d="M108 49v1l6 2-6-3m131 2v1l6-2-6 1m51-2 5 3v-1l-5-2z" class="C"/><path d="m58.667 50.333.666.334-.666-.334m-2 1 .666.334-.666-.334z" class="B"/><path d="M84 134h-1c-2.34 5.012-7.321 21.558-12.133 23.636-6.7 2.892-18.465-7.729-22.828-11.81C29.11 128.12 28.612 100.161 41.31 79c17.632-29.384 54.238-31.846 80.676-13.386 7.095 4.954 21.993 17.498 21.357 27.327-.354 5.467-14.159 7.086-18.342 8.956C109.051 109.03 93.526 117.77 84 133c5.683-3.136 9.4-9.793 14.41-14.025 8.168-6.902 17.911-11.243 27.59-15.525 4.53-2.004 16.437-3.087 18.799-7.753 1.954-3.86-1.899-9.532-3.764-12.697-6.214-10.547-15.963-19.05-27.035-24.252C81.693 43.572 41.481 56.386 32.68 94c-4.987 21.312 1.035 44.579 19.32 57.702 4.308 3.092 14.877 11.619 20.581 8.1C77.116 157.004 82.638 139.286 84 134m182-82.406c-19.444.734-37.77 10.838-49.83 25.83-2.999 3.729-10.539 13.13-7.968 18.273 2.2 4.399 12.574 5.465 16.798 7.066 11.736 4.449 22.643 10.435 31.91 18.966 8.018 7.381 14.489 17.028 18.281 27.271 1.508 4.077 2.172 11.354 7.852 11.446 21.065.339 36.659-28.006 39.227-45.446 4.769-32.385-23.549-64.64-56.27-63.406z" class="C"/><path d="m54.667 52.333.666.334-.666-.334z" class="B"/><path d="m115.667 52.333.666.334-.666-.334M236 52v1h3l-3-1m59 0v1c13.956 5.907 22.83 19.879 29 33h1c-2.989-13.189-16.655-30.539-30-34z" class="C"/><path d="m298 52 1 1-1-1M53 53l1 1-1-1m26 .464C46.977 59.122 30.033 87.016 33.076 118c1.378 14.038 10.747 26.208 21.924 34.087 3.77 2.658 10.03 7.084 14.945 6.294 4.801-.772 4.912-6.783 6.403-10.381 3.848-9.282 9.603-17.895 16.656-24.999 9.632-9.702 21.441-16.294 33.996-21.537 3.772-1.576 14.685-2.781 16.356-6.778 2.357-5.637-5.668-14.735-8.871-18.671C122.393 61.153 98.355 50.044 79 53.464z" class="B"/><path d="m117.667 53.333.666.334-.666-.334M231 55v1l5-3-5 2z" class="C"/><path d="M262 53.439c-17.831 2.78-34.374 10.795-45.43 25.536-2.5 3.334-9.48 12.11-6.524 16.462 2.422 3.564 11.102 4.46 14.954 6.016 11.009 4.445 22.067 9.755 31 17.721 8.682 7.741 16.03 17.892 20.193 28.826 1.452 3.813 2.42 11.055 7.826 10.781 18.779-.954 32.292-23.95 35.861-39.781 7.563-33.547-22.501-71.075-57.88-65.561M299 53l1 1-1-1M51.667 54.333l.666.334-.666-.334z" class="B"/><path d="m119 54 1 1-1-1z" class="C"/><path d="m300.667 54.333.666.334-.666-.334m-251 1 .666.334-.666-.334z" class="B"/><path d="M142 96c-.308-26.292-37.664-42.433-60-40.91C52.14 57.124 33.954 82.573 34 111c.026 16.044 8.346 29.729 20.83 39.33 3.352 2.578 10.47 7.682 14.956 6.598 3.85-.929 3.812-5.959 4.922-8.928 2.524-6.75 7.399-13.263 11.67-19C97.72 113.767 122.437 96.853 142 96z" class="D"/><path d="m120.667 55.333.666.334-.666-.334z" class="C"/><path d="M211 96c34.923 2.856 57.515 33.502 71 62 10.163-2.414 20.269-8.648 26.572-17.039 5.725-7.624 8.764-15.632 10.004-24.961C321.851 91.355 308.04 63.905 283 56.789c-26.125-7.425-69.319 8.506-72 39.211z" class="D"/><path d="m302 55 3 2-3-2M48 56l-2 3 2-3z" class="B"/><path d="m123 56 1 1-1-1m106.667.333.666.334-.666-.334M124 57l4 3-4-3m101 3 4-3-4 3z" class="C"/><path d="m305 57 1 1-1-1m1 1 1 1-1-1M45 59l1 1-1-1m262 0 1 1-1-1M44 60l1 1-1-1z" class="B"/><path d="m128.667 60.333.666.334-.666-.334M221 63l4-3-4 3z" class="C"/><path d="m308 60 3 3-3-3M43 61l1 1-1-1z" class="B"/><path d="m130 61 1 1-1-1z" class="C"/><path d="m42 62 1 1-1-1z" class="B"/><path d="m131 62 3 2v-1l-3-1z" class="C"/><path d="m41 63 1 1-1-1z" class="B"/><path d="m220 63 1 1-1-1z" class="C"/><path d="m311 63 3 3-3-3M40 64l1 1-1-1z" class="B"/><path d="m134 64 4 4-4-4m85 0 1 1-1-1z" class="C"/><path d="m39 65 1 1-1-1z" class="B"/><path d="M217 65v2l2-2h-2z" class="C"/><path d="m38 66 1 1-1-1m276 0 1 1-1-1M37 67l1 1-1-1z" class="B"/><path d="m216 67 1 1-1-1z" class="C"/><path d="m315 67 3 4-3-4z" class="B"/><path d="m138 68 1 1-1-1m77 0 1 1-1-1z" class="C"/><path d="m36 69 1 1-1-1z" class="B"/><path d="m139.333 69.667.334.666-.334-.666M214 69l1 1-1-1z" class="C"/><path d="m35 70 1 1-1-1z" class="B"/><path d="m213 70 1 1-1-1z" class="C"/><path d="m34.333 71.667.334.666-.334-.666z" class="B"/><path d="m140 71 1 1-1-1m72 0 1 1-1-1z" class="C"/><path d="m318.333 71.667.334.666-.334-.666z" class="B"/><path d="m141 72 1 1-1-1m70 0-2 4 2-4z" class="C"/><path d="m33.333 73.667.334.666-.334-.666z" class="B"/><path d="m142.333 73.667.334.666-.334-.666z" class="C"/><path d="M319 73v2h2l-2-2z" class="B"/><path d="M77 140c7.898-20.285 28.592-31.861 47-41-1.842-5.553-5.881-10.778-10.09-14.826-4.194-4.034-9.263-7.074-14.91-8.508-9.352-2.376-20.373-2.669-28.83 2.672C46.217 93.467 51.744 130.315 77 140m151-41c14.249 6.281 25.741 14 36.919 24.675 3.478 3.321 7.594 14.144 12.224 14.898 15.214 2.478 23.086-24.933 21.669-35.573-2.826-21.218-25.043-33.855-44.812-27.402-12.087 3.945-19.634 12.875-26 23.402z" fill="#fdf8f7"/><path d="m32 75-1 3 1-3z" class="B"/><path d="m143 75 1 1-1-1z" class="C"/><path d="m321.333 75.667.334.666-.334-.666z" class="B"/><path d="m144 76 2 3-2-3m64 0-2 5 2-5z" class="C"/><path d="m30.333 78.667.334.666-.334-.666m292 0 .334.666-.334-.666z" class="B"/><path d="m146.333 79.667.334.666-.334-.666z" class="C"/><path d="M29 80v3h1l-1-3m294.333.667.334.666-.334-.666z" class="B"/><path d="m147 81 2 5h1l-3-5m58.333.667.334.666-.334-.666z" class="C"/><path d="m324 82 1 1-1-1M28.333 83.667l.334.666-.334-.666z" class="B"/><path d="m204 83-1 4h1v-4z" class="C"/><path d="m325 84 4 35h1c0-11.647 1.356-24.61-5-35M27.333 85.667l.334.666-.334-.666z" class="B"/><path d="M150 86c.414 4.564 1.389 7.613 6 9v-1l-6-8z" class="C"/><path d="M26 87v3h1l-1-3z" class="B"/><path d="m202.333 87.667.334.666-.334-.666M325 87v4h1l-1-4m-124 2v3h1l-1-3z" class="C"/><path d="M25 91v4h1l-1-4z" class="B"/><path d="m326 91 2 16h1l-3-16m-125.667 1.667.334.666-.334-.666z" class="C"/><path d="M160 93v1h31l-31-1z" class="B"/><path d="M159 94v1h35l-35-1m35 1v1l6-1h-6m-37.333.333.666.334-.666-.334z" class="C"/><path d="M24 96v26h1l-1-26z" class="B"/><path d="M159 101.428c-20.396 2.922-42.259 8.765-57.961 22.857C73.845 148.692 63.136 207.47 89.59 235.83c28.039 30.059 81.725 30.728 119.41 24.895 19.769-3.059 41.584-10.15 54.996-25.815 23.503-27.451 14.905-80.433-7.766-106.109-22.011-24.928-65.716-31.887-97.23-27.373z" class="C"/><path d="M164 102.428c-22.488 3.22-45.571 7.988-62.999 23.743-26.282 23.758-35.73 82.696-9.712 109.658 27.192 28.179 78.603 28.746 114.711 23.882 19.36-2.608 41.736-9.08 55.385-23.885 23.131-25.088 17.947-76.017-2.41-101.736-20.491-25.888-63.152-36.219-94.975-31.662z" class="B"/><path d="M165 104.424c-22.992 3.019-45.845 7.157-63.829 23.38-25.441 22.949-33.072 81.198-8.88 107.106 24.891 26.658 76.039 28.751 109.709 23.791 20.568-3.03 43.615-8.061 58.381-23.987 24.028-25.916 16.527-80.278-6.82-104.711-20.936-21.91-59.325-29.417-88.561-25.579z" class="D"/><path d="m328 111-3 19h1l2-19z" class="C"/><path d="m328 120-1 7h1v-7m-303 2v4h1l-1-4z" class="B"/><path d="m26 123 3 11h1l-4-11z" class="C"/><path d="M26 127v3h1l-1-3m300 0v3h1l-1-3m-298.667 3.667.334.666-.334-.666M325 130c-4.496 15.605-17.646 26.095-31 34v1c10.39-3.782 34.641-21.721 31-35z" class="B"/><path d="m324 131-2 6h1l1-6z" class="C"/><path d="m28.333 132.667.334.666-.334-.666M29 134c2.292 11.889 14.069 22.263 24 28.177 4.438 2.644 12.535 4.062 15.072 8.928 1.716 3.293-.062 9.202-.072 12.895h1c.084-4.044 2.549-10.12.73-13.812-2.702-5.488-13.757-7.69-18.715-11.025C41.079 152.479 35.632 143.566 29 134z" class="B"/><path d="m30.333 135.667.334.666-.334-.666M31 137l2 5h1l-3-5m290.333.667.334.666-.334-.666M320 139l-2 4 2-4m-286 3 4 5-4-5m283.333 1.667.334.666-.334-.666M316 145l1 1-1-1m-1 1 1 1-1-1m-277 1 3 3-3-3m276.333.667.334.666-.334-.666M313 149l1 1-1-1m-271.667 1.667.334.666-.334-.666M310 153l3-3-3 3m-268-1 1 1-1-1m1.667 1.333.666.334-.666-.334M307 155l3-2-3 2m-262-1 1 1-1-1m1 1v2h2l-2-2m260 0-1 2h2l-1-2m-257.333 2.333.666.334-.666-.334m255 0 .666.334-.666-.334M50 158l4 3-4-3m252 0 1 1-1-1m-1 1 1 1-1-1m-1.333 1.333.666.334-.666-.334M54 161v1l6 2v-1l-6-2m237 3v1l8-3-8 2m-231 0v1h3l-3-1m3 1v1l6 2-6-3m219 13h1c-.116-6.209.872-9.603 7-12-8.136-2.367-9.063 6.25-8 12z" class="C"/><path d="M290 165v1h3l-3-1m-4 2v1l4-1h-4z" class="B"/><path d="M69 168v16h1c.664-5.143 4.007-12.459-1-16z" class="C"/><path d="m283 171 3-3-3 3m-.667.667.334.666-.334-.666M283 173v6h1l-1-6z" class="B"/><path d="M283 179c0 5.698-1.235 12.553 5 15l-5-15z" class="C"/><path d="M284 181v9h1l-1-9z" class="B"/><path d="m68 184-4 9v1c4.536-1.735 5.86-5.525 4-10z" class="C"/><path d="M121 184.522c-16.587 2.704-13.603 28.475 3 25.764 16.732-2.731 13.28-28.417-3-25.764m107 .185c-15.515 5.045-9.634 29.872 5.996 25.521 16.211-4.513 9.86-30.677-5.996-25.521M67 186v5h1l-1-5z" class="B"/><path d="M120.001 186.654c-14.673 3.825-8.718 25.497 5.995 21.388 13.25-3.699 7.44-24.891-5.995-21.388m108.003.003c-13.605 4.132-7.801 25.36 5.996 21.756 14.53-3.796 7.945-25.99-5.996-21.756z" class="C"/><path d="M119.015 188.654c-12.166 3.872-4.539 22.684 7.941 17.604 10.935-4.452 3.443-21.228-7.941-17.604m109.024-.078c-12.787 3.679-5.521 21.65 6.871 17.99 11.768-3.475 4.894-21.374-6.871-17.99z" class="E"/><path d="M59 200v-1c-2.072-.05-13.694-2.331-8.497-6.193 2.728-2.027 8.31-.814 11.497-.807-13.11-5.655-19.017 7.866-3 8m226-10 3 2v-1l-3-1m7 1v1c11.202-.022 12.962 6.859 1 7 5.334 2.233 16.82-3.557 8.848-7.933-2.728-1.497-6.881-.194-9.848-.067z" class="B"/><path d="m49 194 14-1c-3.967-1.668-11.05-2.596-14 1z" class="C"/><path d="m66 191 1 1-1-1z" class="B"/><path d="M291 192v1l12 1-1 3c4.519-6.824-7.273-5.01-11-5z" class="C"/><path d="M63 192v1h3l-3-1m106 16c-5.115-1.218-17.497-.781-11.924 7.892 4.507 7.014 25.715 6.305 32.923 4.164 3.624-1.076 7.532-3.791 7.428-8.013-.19-7.778-9.31-3.275-12.824-6.661-2.889-2.784-.825-7.817-3.497-10.948-8.513-9.98-11.426 9.06-12.106 13.566m119-16v1h3l-3-1z" class="B"/><path d="m48 194 1 1-1-1m121 16c-4.284-1.561-15.383-2.297-10.016 5.772 3.548 5.334 25.258 4.398 31.011 2.794 2.619-.729 5.24-2.654 5.539-5.562.778-7.561-9.608-2.275-12.355-6.326-1.902-2.804-.452-6.589-2.207-9.45-6.95-11.332-10.848 9.168-11.972 12.772M49 195l8 4v-1l-8-3z" class="C"/><path d="M160 209c-2.547 13.779 28.02 9.739 35 5l-2-5c-3.732.763-8.449 3.08-10.972-1.149-1.801-3.018.372-11.215-5.028-11.215-5.068 0-3.894 9.138-6.653 12.031-2.824 2.962-6.93.909-10.347.333z" class="E"/><path d="M294 198v1l8-1h-8m-235 1v1c5.071.165 13.068 4.442 8.243 10.581C62.146 217.067 52.013 212.26 50 222l7 1v-1l-6-1c4.887-5.931 12.763-4.043 17.643-9.394 6.574-7.21-3.727-12.552-9.643-12.606m239 17v-1c-4.002-.349-9.646-1.113-12.396-4.419-4.943-5.942 2.209-10.296 7.396-10.581-6.877-2.797-13.362 5.127-8.972 11.501 2.725 3.957 9.672 4.407 13.972 4.499z" class="C"/><path d="M60 200v1h6l-6-1m227 0v1h5l-5-1m-221 1 1 4h1l-2-4m219 0v2l2-2h-2m-1 2v5h1l-1-5m-216 2v5h1l-1-5m-1 5-1 2h2l-1-2m217 0 1 1-1-1m1.667 1.333.666.334-.666-.334M56 214v1l10-2-10 1m231-2v1l6 1-6-2m6 2v1h4l-4-1m-240.333 1.333.666.334-.666-.334M298 215v1l4 3h1l-5-4m-248 1-1 6h1l2-6h-2z" class="B"/><path d="m299.667 216.333.666.334-.666-.334m1.666 1.334.334.666-.334-.666M58 221v1c3.365-.154 8.436-2.53 11.56-1.454 5.677 1.953 9.33 13.758 13.105 18.283C90.831 248.618 102.738 256.495 115 260l-25.75-16.559-19.344-24.54L58 221m194 31v1c9.245-3.066 16.932-12.087 22.162-20 2.305-3.488 4.221-9.892 8.051-11.932 3.278-1.746 8.284.627 11.787.932l-12.621-2.731-10.291 15.56L252 252z" class="C"/><path d="M63 221v1l11 3c-2.574-5.294-5.713-5.146-11-4z" class="B"/><path d="m302 219-7 3v1c3.162-.103 7.091-.153 7-4z" class="C"/><path d="m280 223 7-2c-3.117-1.263-5.171-.824-7 2m7-2v1h3l-3-1m15 0-1 2h2l-1-2m-252 1v1l7 1v-1l-7-1m7 0v1h5l-5-1m233 0v1h5l-5-1m-10.667 1.667.334.666-.334-.666M296 223v1h5l-5-1m-221.667 2.667.334.666-.334-.666m204 0 .334.666-.334-.666m-1 2 .334.666-.334-.666m-202 1 .334.666-.334-.666m201 1 .334.666-.334-.666M76 230l1 1-1-1m1 1 2 3-2-3m198 0-2 4 2-4m-195.667 3.667.334.666-.334-.666m193 1 .334.666-.334-.666M80 236l1 1-1-1m1 1 1 1-1-1m190 0 1 1-1-1m-188.667 1.667.334.666-.334-.666M270 238l1 1-1-1m-1 1 1 1-1-1m-186 1 1 1-1-1m185 0-2 3 2-3m-184 1 3 3-3-3m181 2-2 3 2-3m-178 1 1 1-1-1m1.667 1.333.666.334-.666-.334M90 246l1 1-1-1m172 0 1 1-1-1m-171 1 1 1-1-1m170 0 1 1-1-1m-169 1 1 1-1-1m168 0 1 1-1-1m-166.333 1.333.666.334-.666-.334M258 249l1 1-1-1m-163 1 1 1-1-1m162 0 1 1-1-1m-161 1 1 1-1-1m160 0 1 1-1-1m-158.333 1.333.666.334-.666-.334m157 0 .666.334-.666-.334m-155 1 .666.334-.666-.334z" class="B"/><path d="m247 256 4-3-4 3z" class="C"/><path d="M251 253v1h3l-3-1m-150 1 3 2-3-2m149 0 1 1-1-1m-1 1 1 1-1-1m-144.333 1.333.666.334-.666-.334z" class="B"/><path d="M224 263v1l22-7-22 6z" class="C"/><path d="M246 256v1h3l-3-1m-138.333 1.333.666.334-.666-.334m137 0 .666.334-.666-.334M109 258v1l4 1v-1l-4-1m133.667.333.666.334-.666-.334m-2 1 .666.334-.666-.334M113 260v1l11 3v-1l-11-3z" class="B"/><path d="M116 260v1l8 2-8-3z" class="C"/><path d="M237 260v1h3l-3-1m-9 3v1l8-2-8 1z" class="B"/><path d="M124 263v1l17 3-17-4z" class="C"/><path d="M125 264v1h4l-4-1z" class="B"/><path d="M211 266v1l12-2-12 1z" class="C"/><path d="M223 264v1h5l-5-1m-93 1v1h4l-4-1m86 1v1l7-1h-7m-82 0v1h3l-3-1m3 1v1h5l-5-1z" class="B"/><path d="M142 267v1h10l-10-1m59 0v1h9l-9-1z" class="C"/><path d="M210 267v1h6l-6-1m-67 1v1h10l-10-1z" class="B"/><path d="M153 268v1h47c-12.177-5.11-33.735-1-47-1z" class="C"/><path d="M200 268v1h9l-9-1m-46 1v1h45l-21-.09-24-.91z" class="B"/></svg>