<svg xmlns="http://www.w3.org/2000/svg" width="368" height="257" xmlns:v="https://vecta.io/nano"><style><![CDATA[.B{fill:#673933}.C{fill:#cfa39e}.D{fill:#90615b}.E{fill:#460e06}.F{fill:#fef1ef}]]></style><path d="M0 0v257h368V0H0z" class="F"/><path d="M180 39.424c-31.347 4.116-62.294 6.7-85.881 31.206-5.964 6.196-11.13 13.523-14.666 21.37-1.849 4.102-2.272 10.389-6.066 13.307-4.149 3.19-14.182.054-19.387 1.222-19.683 4.415-31.248 20.213-29.816 40.471 1.389 19.626 12.059 34.443 31.816 38.485 6 1.228 14.414-1.493 19.826 1.543 4.043 2.267 6.229 7.614 9.278 10.972 5.212 5.739 11.217 10.531 17.896 14.444 32.904 19.279 76.858 20.834 114 16.27 19.72-2.423 41.361-9.162 57.196-21.471 7.059-5.487 11.709-15.052 18.989-19.729 7.748-4.977 21.513-1.123 30.645-5.124 20.713-9.074 26.742-39.459 16.932-58.39-5.159-9.954-16.664-16.81-27.762-17.895-4.953-.485-13.727 1.978-17.697-1.512-7.008-6.163-8.028-20.69-14.731-28.304C257.21 49.753 215.184 34.805 180 39.424z" class="C"/><path d="M168 41v1c36.681 0 76.055 2.904 103.961 30.09 6.277 6.114 11.811 13.752 15.079 21.91 1.551 3.872 2.897 12.582 6.393 14.972 4.469 3.056 14.341.83 19.567 1.067 11.867.54 24.072 9.225 27.28 20.961 5.258 19.234-2.079 45.017-23.28 50.443-7.361 1.884-18.082-2.281-24.7 1.585-7.541 4.405-12.206 15.488-19.471 21.11-19.105 14.786-46.875 22.261-70.829 22.847-35.52.871-71.166-.944-102-20.449-9.274-5.866-13.706-17.994-22.376-23.357-6.995-4.327-18.725.267-26.624-2.167-21.073-6.495-28.578-34.059-20.613-53.012 4.44-10.567 15.345-17.463 26.613-17.961 5.137-.227 15.413 2.277 19.348-1.568 6.993-6.831 8.583-21.822 15.16-30.185C107.989 57.334 140.596 43.562 167 43c-6.469-2.714-14.478.863-21 2.2-21.696 4.444-44.845 16.431-57.79 34.8-5.13 7.279-7.249 22.09-13.743 27.393-3.608 2.946-11.055.389-15.467.697-10.227.712-20.465 4.389-26.637 13-13.397 18.687-6.429 51.964 15.637 60.442 8.258 3.172 20.845-1.152 27.79 2.535 6.514 3.457 10.966 14.014 16.786 19.009 11.558 9.919 25.962 15.699 40.424 19.885 39.907 11.549 95.474 8.937 132-11.475 11.933-6.668 17.465-20.043 28.174-26.793 5.116-3.225 17.519-.885 23.826-1.979 16.714-2.9 24.346-18.373 25.83-33.714 1.976-20.418-7.192-36.177-27.83-40.335-5.575-1.123-16.236 2.147-20.57-1.411-3.518-2.888-4.226-10.176-6.021-14.254-3.7-8.405-8.625-15.65-15.074-22.196C245.803 42.855 204.54 41 168 41z" class="D"/><path d="M167 42v1h35l-35-1m-41 11v1l40-10c-9.91-4.04-30.558 5.147-40 9z" class="B"/><path d="M42 177c4.573.723 8.392 3.571 13 3.942 6.436.519 16.085-2.058 21.91 1.086 7.75 4.183 12.174 15.691 19.38 21.286 17.487 13.579 39.347 18.336 60.71 20.736 30.883 3.469 62.63 2.714 92-8.056 11.098-4.07 21.041-9.628 29.535-17.994 4.628-4.558 7.97-12.643 13.639-15.821 7.637-4.281 18.607.8 26.826-2.363 21.216-8.167 29.33-40.531 15.015-58.607-6.046-7.636-15.768-10.205-25.015-10.209-4.472-.002-12.9 1.603-16.487-1.603-3.772-3.372-4.488-10.852-6.171-15.397-2.69-7.266-7.303-13.373-12.516-19.01C248.821 47.946 204.3 39.807 169 43.103c-26.139 2.44-58.961 13.063-75.884 34.364-7.057 8.88-8.571 23.661-15.63 31.214-5.957 6.375-20.732.326-28.486 3.389-18.921 7.475-24.763 30.596-17.79 48.929 2.505 6.587 7.557 10.238 10.79 16z" class="E"/><path d="M204 43v1l14 2-14-3m14 3v1h6l-6-1m6 1v1l9 2-9-3m9 3v1h4l-4-1m4 1 7 3v-1l-7-2m-120 6v1l8-3-8 2m128-3 7 4v-1l-7-3m-135 7v1l7-4-7 3m143-3 4 3-4-3m4 3v1h3l-3-1M99 69v1l11-8-11 7m161-7 5 4v-1l-5-3m5 4 3 3-3-3m3 3 8 8-8-8M98 70l-3 3v1l3-4m-4 4-1 3 1-3m-3 3-4 8 6-8h-2m185 0 3 3-3-3M95 154c-15.947 5.29-15.824 18.551-8.444 30.996C94.869 199.016 115.28 213.642 132 214v-1c-15.716-2.441-33.61-14.176-42.705-27.039-3.208-4.536-7.724-11.101-7.107-16.961.86-8.174 11.997-9.217 13.404-16.184.743-3.684-1.382-8.066-1.553-11.816-.556-12.264-.196-24.996 5.9-36C121.42 66.214 166.486 81.605 183 115c13.454-7.356 18.142-24.842 34-31.073 22.207-8.726 48.338 6.005 55.532 28.073 4.478 13.735 2.063 25.185 1.468 39h1c12.634-29.94-12.083-77.186-48-71.696-22.137 3.383-28.827 20.856-44 33.696-7.889-30.311-46.678-41.72-70.961-24.756C93.675 101.073 86.374 133.557 95 154m184.333-73.333.334.666-.334-.666z" class="B"/><path d="M183 115c-10.697-30.67-51.384-46.115-75.829-20.91C95.241 106.39 93.974 121.834 94 138c.007 4.328 2.415 10.814 1.223 14.816-2.217 7.447-13.231 7.543-13.164 17.184.162 23.025 32.054 39.312 50.941 43.804 44.769 10.648 119.902 14.514 149.022-29.804 4.688-7.134 8.536-15.683 1.649-22.674-3.005-3.05-9.048-4.645-9.647-9.38-.966-7.632 2.444-15.994 1.886-23.946-1.724-24.597-17.487-44.586-42.91-46.826-25.756-2.269-33.465 20.547-50 33.826z" class="D"/><path d="m280 82 3 3-3-3z" class="B"/><path d="M183 117c-13.93-33.282-60.305-49.732-81.651-13-5.855 10.075-7.096 23.584-6.259 35 .324 4.422 2.879 9.488 1.74 13.91-2.01 7.795-14.458 8.245-13.573 18.09 1.773 19.728 25.885 32.491 41.743 38.857 12.169 4.885 25.118 6.086 38 7.313 35.646 3.394 85.765 2.622 111.826-26.174 5.627-6.217 15.255-18.44 9.25-26.903-3.145-4.433-10.684-6.214-11.473-12.097-1.016-7.576 1.699-16.19 1.358-23.996-.938-21.415-13.448-41.31-35.961-44.572-15.862-2.298-29.599 3.434-39.985 15.572-4.933 5.766-8.298 14.325-15.015 18z" class="C"/><path d="m86 85-2 5 2-5z" class="B"/><path d="M103 104c-.724 5.24-3.763 9.718-3.98 15-.477 11.547 2.591 25.801-.338 36.981-2.527 9.645-16.26 6.504-10.683 20.849C103.398 216.443 162.047 215 196 215c13.254 0 27.6-.188 40-5.272 18.936-7.763 56.764-22.377 43-48.728-3.936-.627-8.688-2.292-9.378-6.915-1.581-10.584 2.26-23.843 1.32-35.046-.566-6.747-5.97-12.346-6.942-19.039l-4-4h-4c-2.072-6.083-8.69-6.429-13.83-8.79C222.986 78.397 191.001 97.522 190 119h-10c-1.42-18.742-30.696-39.132-48.83-33.455C118.789 89.42 113.303 98.213 103 104z" class="F"/><path d="M283 86v3h1l-1-3m1 3 2 5h1l-3-5M83 90l-3 10h1l2-10m204 5 3 12h1l-4-12m-208 6c-.767 4.234-2.126 6.986-6 9v1c5.17-.822 7.98-4.911 6-10m212 6c2.399 7.229 20.489 4 27 4v-1c-8.509 0-19.818 2.186-27-3m-239 3v1h20l-20-1m-10 4v1l8-3-8 2m276-3v1l10 3-10-4m-280 7 4-3-4 3m290-3 5 4-5-4m-291 3 1 1-1-1m-3 4 3-3-3 3m299-3 3 4-3-4m-300 3-3 8h1l2-8m303 1 3 8h1l-4-8m-274 4v1c14.355.17 9 22.387 9 33l1.035-24-.932-8.397L62 127m235 8h1c2.514-16.1 23.905-.196 23.92 11 .009 7.364-13.831 29.026-22.163 18.678-3.965-4.924-.757-22.232-.757-28.678-1.857 4.426-4.02 27.529-.678 30.397 3.445 2.955 9.082 1.366 12.674-.336 10.042-4.757 14.078-15.343 11.702-26.061-2.438-10.994-28.129-19.891-25.698-5M72 162h-1c-2.36 7.769-11.372 3.554-15.985-.275C43.294 151.995 46.417 133.657 61 129c-5.937-2.035-12.142 4.55-13.57 10-2.47 9.427-.333 21.098 8.61 26.061 5.669 3.147 15.272 5.765 15.96-3.061z" class="B"/><path d="M61 128.532c-21.585 5.134-14.184 43.075 6.856 38.11 4.887-1.153 3.229-8.052 3.158-11.642-.186-9.434 5.026-30.044-10.014-26.468m239.318.497c-4.037 2.673-1.338 10.938-1.319 14.971.056 11.653-2.8 30.932 14.982 19.031 8.506-5.693 10.558-19.61 4.747-27.847-3.194-4.525-12.945-9.775-18.41-6.155z" class="D"/><path d="M70 130c-17.42-2.875-28.699 17.023-15.906 30.2 2.63 2.709 12.9 7.671 15.288 2.482 1.96-4.257-.554-12.863-.343-17.682.22-5.037.96-9.929.961-15m231.357.067c-3.06 1.977-1.362 8.845-1.357 11.933.015 9.624-3.142 30.324 12.981 20.146 8.14-5.139 9.737-18.3 4.656-25.961-2.586-3.898-11.552-9.173-16.28-6.118z" class="C"/><path d="M29 130v28h1l-1-28z" class="B"/><path d="m67 162-1-31c-3.31 1.295-8.966 2.515-11.258 5.317-8.7 10.638.394 25.674 12.258 25.683m234-31c2 10.957 5.594 20.558 0 31 16.011-.012 16-10.989 16-24l-16-7z" class="F"/><path d="M340 131v25h1l-1-25z" class="B"/><path d="M112 157h3c.704 6.267 4.038 7.856 10 8v2c-5.205-.107-10.861-1.915-16-.57-5.164 1.352-10.92 7.38-4.852 11.646 5.218 3.668 15.419 3.092 20.739-.216 4.978-3.094.798-7.772 3.898-11.257 2.834-3.185 6.619-.793 8.215-5.603h4c.056-6.31 2.475-13.201-1.595-18.871C127.249 125.194 112 143.208 112 157m143 0h3c0-6.449.121-12.682-5.26-17.271-9.243-7.883-24.006-2.039-25.072 10.271-1.365 15.769 24.96 22.318 27.332 7z" class="C"/><path d="M124 139.573c-14.627 4.133-8.83 27.374 5.999 23.854 16.171-3.838 9.952-28.36-5.999-23.854m115 0c-15.346 4.336-7.765 27.76 7 23.699 15.521-4.269 8.349-28.035-7-23.699z" class="D"/><path d="M128 163v-1c-2.371-1.269-4.882-2.508-6.853-4.38-15.862-15.053 22.224-21.721 15.495-4.048-1.28 3.362-4.787 5.446-6.642 8.428 11.48-4.544 11.029-22.254-3-21.522-15.226.796-11.102 19.861 1 22.522m112-1c-1.735-2.802-4.631-4.828-5.809-8.015-6.582-17.81 28.019-12.345 15.496 2.907-1.579 1.922-3.538 2.989-5.687 4.108 10.285 3.216 12.814-15.658 3.826-19.397C233.21 135.524 226.162 155.524 240 162z" class="B"/><path d="M122.444 142.988c-9.523 5.263-1.682 22.436 7.965 17.765 12.766-6.181 4.024-24.391-7.965-17.765m114.946.04c-9.437 6.033-.443 23.167 9.591 16.962 10.969-6.783 1.387-23.98-9.591-16.962z" class="E"/><path d="M177.46 147.988c-11.52 6.843 3.484 21.836 13.497 15.27 13.717-8.996-2.767-21.643-13.497-15.27z" class="C"/><path d="M182.019 148.747c-8.92 3.402-3.585 16.352 4.976 13.351 10.086-3.535 4.37-16.915-4.976-13.351z" class="D"/><path d="M182.059 150.747c-8.009 3.201-.757 12.071 5.882 9.148 7.929-3.49.542-11.716-5.882-9.148z" class="B"/><path d="M179 158c5.241.97 9.815 1.711 12-4-5.316-2.558-11.431-3.139-12 4z" class="E"/><path d="m273.333 152.667.334.666-.334-.666z" class="B"/><path d="m312 152 1 3-1-3z" class="C"/><path d="m274 154 6 4-6-4z" class="B"/><path d="m308 157 1 1-1-1z" class="C"/><path d="m339 157-3 10h1l2-10m-59 1v1l5 3-5-4m-250 1 3 9h1l-4-9z" class="B"/><path d="M161 166c.009 13.407 10.769 17.995 23 18 4.699.002 12.383 1.527 14-4 8.445-.466 10.973-6.288 11-14l-8.015-3.705L185 167.938l-15.975-5.682L161 166z" class="C"/><path d="M285 162c4.347 12.251-2.372 17.049-7 28 7.554-4.245 16.195-21.742 7-28z" class="B"/><path d="M168.059 166.072c-7.055 1.568-1.541 9.752 1.96 11.839 7.395 4.41 18.023 4.126 25.981 1.645 3.694-1.151 14.621-9.591 6.757-12.937-5.38-2.289-13.473 4.633-19.757 4.052-4.901-.454-10.199-5.653-14.941-4.599z" class="D"/><path d="M271 174c-4.414-8.633-25.797-12.566-29.758-.95-1.472 4.315 4.756 5.914 7.758 6.482 8.972 1.699 14.903-.209 22-5.532z" class="C"/><path d="M191 171v1l12-4c-2.177 13.815-36.236 14.452-35 0l22 5c-3.827-1.606-17.102-5.79-20.852-5.454-7.143.638.981 9.351 3.853 10.422 7.185 2.679 17.945 2.662 24.994-.482 2.793-1.245 9.437-9.224 2.857-10.021-3.216-.389-6.78 2.709-9.852 3.535m144-4-2 4 2-4m-300.667 1.667.334.666-.334-.666z" class="B"/><path d="M168 168c-3.031 13.479 33.839 15.078 35 0l-16 4.829L168 168z" class="E"/><path d="m35 170 3 3-3-3m297.333 1.667.334.666-.334-.666M38 173l1 1-1-1m292.667.333.666.334-.666-.334M39 174l3 3-3-3m288 3 3-3-3 3m-285 0v1l9 3-9-4m282 0v1h3l-3-1m-6 3v1l6-2-6 1m-266 1v1l27 1c-6.065-4.595-19.55-2-27-2m240 0v1h26l-26-1m-2 1-4 8h1l5-8h-2m-210.667 1.667.334.666-.334-.666M80 185l3 4-3-4z" class="B"/><path d="M177 188v1h7l-7-1z" class="C"/><path d="m83.333 189.667.334.666-.334-.666M277 190l-3 4 3-4m7 0-5 8 7-8h-2m-200 1 3 5h1l-4-5m189 3 1 1-1-1m-1 1-4 3v1l4-4m-184 1 3 3-3-3m190 2-1 2h2l-1-2m-187 1 1 1-1-1m175 0-17 10v1c6.917-.747 15.267-5.026 19-11h-2m-174 1 3 3-3-3m179 5 6-5-6 5m-176-2 1 1-1-1m1 1v1l5 2-5-3m171 4 4-3-4 3m-165.333-.667.666.334-.666-.334M103 208v1l4 2-4-3m157 3v1l7-3-7 2m-23 2v1l12-3-12 2m-130-2v1h3l-3-1m3 1v1l5 2-5-3m144 3 6-2-6 2m-121-1v1l18 3-18-4m85 3v1l18-3-18 2m-103-2v1h4l-4-1m129 4 10-3c-3.897-1.393-7.252.114-10 3m-125-3v1l7 2-7-3m32 2v1c20.859 5.139 45.936 2.676 67 0l-21 .985L151 218m-25 1v1h5l-5-1m103 3v1l14-3-14 2m-98-2v1l10 2-10-3m11 3v1l59 2.999L228 224c-8.808-3.696-20.809 1.558-30 1.961-18.945.83-37.218-2.961-56-2.961z" class="B"/></svg>