<svg xmlns="http://www.w3.org/2000/svg" width="312" height="329" xmlns:v="https://vecta.io/nano"><style><![CDATA[.B{fill:#d85553}.C{fill:#edc315}.D{fill:#f1403c}.E{fill:#5f2013}]]></style><path d="M0 0v329h312V0H0z" fill="#fbf9f8"/><path d="M64 73c-2.849.537-6.102.748-8.71 2.086C31.663 87.202 63.613 108.328 72 116c-5.971 0-12.042-.318-18 .09-5.796.396-15.358.489-19.486 5.189-3.546 4.035-1.893 10.052-.773 14.721 2.867 11.946 6.468 22.037 14.009 32 3.67 4.848 11.146 9.057 12.816 15.015 6.077 21.672-4.747 43.332-2.392 64.985.723 6.654 4.065 13.477 7.716 19 1.428 2.159 5.308 5.784 3.993 8.677-4.325 9.515-18.756-18.872-22.564-4.618-3.617 13.539 15.545 20.638 25.681 17.883 3.75-1.019 7.46-5.063 11.424-4.632 11.937 1.297 24.091 9.454 36.576 11.262 27.853 4.033 53.496.166 81-2.572v-1c-9.254.197-18.699 2.945-28 3.83-15.872 1.511-33.193.695-49-1.004-14.382-1.545-26.39-9.108-40-11.967-4.954-1.041-8.642 3.353-13 4.88-8.47 2.967-25.807-4.648-23.627-15.63.6-3.029 3.758-4.243 6.249-2.462 3.172 2.269 12.18 16.203 17.292 7.035 1.874-3.361-2.068-7.237-3.879-9.682-4.417-5.966-7.946-13.544-8.85-21-2.596-21.4 8.363-43.115 2.497-64.91-1.574-5.847-9.485-10.413-13.164-15.09-7.215-9.171-11.553-19.588-13.438-31-.72-4.355-2.124-9.928 1.434-13.486C40.767 117.26 51.415 118.002 57 118c6.723-.003 13.307.945 20 1-6.167-9.348-43.6-27.07-21.895-41.853C58.309 74.965 62.466 74.501 66 73c-3.68-6.59-7.107-15.337-5.482-23C62.7 39.709 71.885 28.651 82.96 35.272c11.641 6.96 19.483 23.172 25.73 34.728 2.301 4.256 4.012 11.308 7.921 14.353 7.038 5.482 9.423-11.572 9.333-15.353-.097-4.078-1.591-7.943-1.945-12h-1c.07 8.469 4.411 24.206-6 28-2.709-14.057-14.539-31.034-23.468-42-3.225-3.96-7.519-8.807-12.532-10.436C56.639 24.649 57.436 59.941 64 73m126 12c-3.752-15.714-8.693-28.238-20.615-39.8-3.811-3.696-11.757-11.104-17.067-5.878-4.19 4.123-1.014 13.2-2.318 18.678-7.345-4.837-27.029-19.72-28-2h1c3.397-16.645 18.481 1.917 25.981 2.549 8.969.755-2.47-24.592 11.019-18.416 10.764 4.929 19.788 18.24 24.077 28.867 1.311 3.249 3.054 15.41 7.027 15.824 5.299.552 9.098-12.184 11.074-15.824 6.229-11.474 13.224-24.432 23.822-32.467 9.704-7.357 20.097-.261 22.945 10.467 1.047 3.944 1.052 7.954 1.055 12 5.552-13.23-7.936-33.8-22.985-25.347C207.12 44.828 206.213 71.769 190 85z" class="C"/><path d="M66 73c-3.526 1.12-7.7 1.67-10.895 3.569C32.476 90.015 69.805 111.192 77 119c-6.693-.138-13.27-1-20-1-5.491 0-16.044-.92-20.486 2.858-3.607 3.068-2.413 9.107-1.76 13.142 1.92 11.867 5.748 22.245 13.007 32 3.782 5.082 12.301 9.862 13.921 16.039 5.82 22.2-5.99 44.162-2.356 65.961 1.11 6.66 4.035 13.549 7.963 19 1.65 2.289 5.411 5.674 4.38 8.852-4.409 13.588-19.957-16.489-23.346-4.624-2.816 9.857 10.595 17.595 18.677 17.591 6.299-.002 11.179-6.147 17-5.671 11.48.939 25.136 8.798 37 11.187 16.237 3.27 34.492 2.055 51 1.65 11.422-.279 24.104-2.019 35-5.504 5.98-1.913 12.852-6.595 19-7.158 7.639-.7 13.15 6.512 22 4.737 6.195-1.242 16.863-9.325 14.164-16.912-4.053-11.397-18.61 18.074-23.568 4.874-1.167-3.109 2.904-6.77 4.491-9.023 4.352-6.175 6.423-12.586 7.485-19.999 3.103-21.663-6.778-42.995-1.254-65 1.624-6.47 9.608-10.81 13.477-16.039 6.773-9.157 12.31-21.475 13.115-32.961.237-3.373.941-8.765-1.513-11.486C270.199 116.86 258.67 118 253 118c-6.396 0-12.638.869-19 1 7.558-9.411 22.942-13.307 26.431-26 1.542-5.61.632-12.473-4.486-15.852-2.608-1.722-8.377-1.79-9.28-5.296-.855-3.321 2.346-8.438 2.895-11.852 1.875-11.644-3.932-31.582-19.56-26.297C216.738 38.188 207.752 57.5 201.64 69c-1.897 3.57-5.424 15.414-10.34 15.503-3.688.067-5.465-11.681-6.481-14.503-3.536-9.826-9.831-18.835-17.82-25.56-2.741-2.308-6.967-6.326-10.94-5.507-8.982 1.852 1.212 15.495-5.478 18.895-6.559 3.333-17.88-16.233-25.838-7.31-4.586 5.142 1.747 19.37-.122 26.482-.715 2.72-1.943 7.597-5.561 7.654-4.976.079-8.444-12.093-10.369-15.654C102.34 57.25 91.064 32.127 75 33.06 56.31 34.144 58.12 62.351 66 73z" class="B"/><path d="M232 119c6.61-10.906 22.596-12.947 27.125-26 1.967-5.67.38-12.587-5.168-15.543-2.762-1.472-8.163-.917-9.144-4.605-.945-3.555 2.324-8.413 3.147-11.852 2.399-10.029-2.376-31.224-16.959-26.184C217.27 39.56 208.324 59.002 202.109 71c-1.944 3.752-5.547 15.816-11.066 15.079-5.204-.695-6.328-12.136-7.64-16.079-3.595-10.8-12.368-22.705-22.403-28.292-13.175-7.336-2.105 18.48-10.133 19.036-7.801.54-14.047-13.382-23.718-9.908-4.85 1.742-1.745 7.832-.909 11.164 1.575 6.278 1.947 20.494-5.344 23.712-6.123 2.703-9.968-8.793-11.933-12.712-5.971-11.911-12.699-24.922-22.628-34.076-6.111-5.633-14.116-6.672-19.802.17-9.888 11.898.967 21.87-.77 33.758-.55 3.76-7.017 3.53-9.708 4.987-5.842 3.162-6.261 11.572-3.776 17.16 3.362 7.561 11.944 12.635 18.72 16.736 2.06 1.246 6.613 3.652 5.745 6.746-.773 2.755-7.708 1.548-9.744 1.505-5.996-.125-28.514-3.184-30.682 4.161-3.85 13.041 5.057 32.063 13.062 41.868 4.232 5.183 12.935 9.886 13.561 16.989.858 9.735 2.382 21.285 1.53 30.996-.944 10.769-5.817 19.884-4.031 31 1.092 6.797 3.192 13.975 6.844 19.829 1.87 2.999 7.145 7.261 6.508 11.078-2.379 14.268-17.62-4.385-20.232-5.77-4.102-2.177-4.444 3.404-3.586 5.866 3.182 9.12 14.137 13.116 23.026 10.344 4.684-1.46 7.751-6.347 13-4.419 31.242 11.479 65.467 17.482 99 11.608 14.03-2.457 27.472-9.844 41-12.048 9.033-1.471 15.024 9.398 25.985 3.824 2.948-1.498 13.414-11.704 7.412-15.136-5.85-3.346-12.518 18.729-21.828 7.585-2.723-3.259.279-6.174 2.344-8.776 4.48-5.644 8.289-12.719 9.011-19.985 2.186-21.976-9.214-46.434-1.034-67.985 2.061-5.431 7.938-9.067 11.682-13.304 7.631-8.637 19.943-31.513 14.825-43.578-1.849-4.358-7.447-4.113-11.397-4.132-9.884-.049-21.468 1.721-31-1.001z" class="E"/><path d="M84 88c-8.275 2.586-15.177-7.198-22.852-4.353-8 2.965.505 12.837 3.856 15.465 4.178 3.277 13.248 11.427 18.996 10.096 5.09-1.179 9.951-7.757 14-10.919 3.062-2.39 8.774-4.383 9.998-8.394 1.265-4.14-2.795-9.408-4.635-12.895-4.902-9.291-14.525-33.166-26.374-35.069C63.75 39.805 70.633 64.864 73.26 70 76.454 76.247 80.707 81.817 84 88m150.985-45.914C227.254 40.887 219.92 54.64 216.612 60c-3.743 6.066-17.224 23.64-13.544 30.871 2.2 4.323 9.254 7.471 12.932 10.568 3.147 2.65 6.643 7.402 11 7.914 6.989.821 18.687-9.427 22.772-14.357 2.351-2.838 4.513-7.373.909-10.24-4.841-3.85-21.762 7.854-22.774 2.08-.546-3.11 3.006-6.469 4.55-8.836 4.041-6.196 18.557-33.427 2.528-35.914z" class="B"/><path d="M75.105 44.072c-4.52 1.274-5.24 8.067-4.917 11.928.572 6.82 4.307 14.197 8.013 19.83 1.964 2.987 6.283 7.238 5.778 11.114-1.36 10.444-18.074-5.777-23.335-.327-2.534 2.625.184 6.344 2.065 8.38 3.662 3.96 15.469 14.377 21.291 12.632 3.475-1.042 6.304-4.92 9-7.19 3.531-2.973 11.034-6.189 12.84-10.543 2.513-6.063-8.563-21.734-11.739-26.896-3.134-5.093-11.207-21.124-18.996-18.928m159.79.014C227.72 42.888 220.846 56.093 217.751 61c-3.772 5.979-15.756 21.55-13.107 28.867 1.451 4.01 8.604 7.12 11.784 9.893 3.05 2.659 6.32 7.201 10.572 7.814 6.408.923 16.884-8.09 20.656-12.614 1.724-2.068 4.184-5.74 1.722-8.203-5.787-5.79-19.681 10.024-22.717 1.095-1.294-3.807 2.76-7.95 4.644-10.852 4.091-6.303 8.308-13.344 8.875-21 .283-3.833-.404-11.098-5.285-11.914z" class="C"/><path d="M162 54c-1.005 3.882-3.631 23.592-9.92 21.654-3.712-1.144-11.877-18.894-17.052-13.007-2.196 2.498-.872 8.271-1.202 11.353-.458 4.277-2.547 8.678-1.308 13 3.462 12.081 14.717 23.864 19.618 36 1.437 3.558 4.341 20.729 8.93 20.079 6.224-.882 11.209-15.049 13.19-20.079 6.686-16.978 8.738-33.562 2.513-51-2.436-6.824-7.434-15.906-14.769-18z" class="B"/><path d="M163 56c-1.422 4.497-3.176 23.495-10.925 21.539C145.454 75.867 143.176 65.46 136 63c-1.501 6.303-3.173 17.725-1.563 24 1.384 5.399 6.401 10.174 9.136 15 6.981 12.321 13.592 25.793 15.427 40 7.826-3.737 11.905-14.208 14.691-22 7.311-20.455 9.412-49.733-10.691-64m86 4-4 13h1c2.531-4.03 4.917-8.297 3-13m-3 13 1 1-1-1m1 1v1l11 3c-3.174-3.597-6.348-3.958-11-4m11 4c4.586 9.826 2.044 15.102-3 24 7.194-3.89 10.99-19.112 3-24z" class="C"/><path d="m115 100-12 4 1 3-1 1-9 4 2 4-4-2-3 5c-.132 3.282-.806 4.209-4 5l-5 18h-1v-4h-1l-5 22v1c2.64 3.981.545 8.473.599 13 .114 9.686.86 19.118.488 28.845-.18 4.729-3.173 11.585.913 15.155l-2 9h-1l-1-3h-1v28l3-2 4 12c4.443-1.661 5.664-4.634 7-9 8.063 1.216 14.941-5.14 19 5-10.799 3.834-11.144 4.538-13 15l4 4 12 1-3 2c14.457 7.248 29.939 3.946 45 3.093 7.268-.411 14.629 1.153 22 .896 6.089-.212 21.449-5.404 25 .011l14-4v-1l-4-1v-1h12v-1l-2-1 7-1c-2.727-4.332-3.551-5.838-2-11-3.504-.068-16.213-6.063-9.728-10.192 7.373-4.694 15.48 4.499 20.728 8.192l4-6h1v3c11.374-7.516 5.42-32.028 1-42h-1v6h-1v-22h1l1 9h1v-49h-1l-1 4h-1l-1-17v-3l-11-24-3 2-5-11-2 2-11-12 1 3-3-3h-8l-5 20h-1v-6h-1l-5 16h1l2-2-17.35 22.999-8.638 7.388L148 152c1.886-7.438 1.334-12.654-1-20l-3 2c-.525-6.424-2.277-19.588-8-23v-4l-3 1c.518-4.066-.35-6.079-4-8-1.392-7.496-11.767-6.519-14 0z" class="D"/><path d="M125 94v2h2v-2h-2m65 2-4 25h1l5-20h8v-1l-10-4z" class="B"/><path d="M191 96v2h2l-2-2m-78 2 1 1-1-1z" class="D"/><path d="m114 98-2 1v1l2-2m15 1 1 1-1-1m71 2 3 3-3-3z" class="B"/><path d="m254 102 1 1-1-1m-1 1-6 6 6-6z" class="C"/><path d="m102 105-1 1v1l1 1h1l1-1v-1l-2-1m32 0-1 3 1-3m71 1 1 1-1-1m4 0c.312 3.93 1.457 5.315 5 7l1-3-6-4z" class="B"/><path d="m245.667 109.333.666.334-.666-.334z" class="C"/><path d="m136.667 110.333.666.334-.666-.334z" class="B"/><path d="m241 113 4-3-4 3z" class="C"/><path d="M93 113v3h3v-3h-3m123 0 4 9 2-4-4-5h-2z" class="B"/><path d="m239.667 113.333.666.334-.666-.334z" class="C"/><path d="m136 114 1 1-1-1z" class="B"/><path d="M234 119h37v-1l-32-4-5 5z" class="C"/><path d="m91 116-2 3c2.25-.473 3.118-.86 2-3z" class="B"/><path d="m219 116 1 1-1-1z" class="D"/><path d="m140 118 4 16h2c-.125-5.304-1.571-12.677-6-16z" class="B"/><path d="M271 119v1h3l-3-1z" class="C"/><path d="m86 125 4-5-4 5z" class="B"/><path d="m274 120 2 2v-2h-2m2 2-3 24h1c2.562-6.976 5-16.851 2-24z" class="C"/><path d="M45.318 127.746c-3.2 1.581-2.334 6.416-1.878 9.254 1.281 7.979 5.302 16.637 10.24 22.999 1.606 2.068 4.818 6.702 8.006 5.655 4.087-1.341 4.438-13.106 5.117-16.654.862-4.506 4.796-14.481 3.41-18.682-1.03-3.115-22.03-3.987-24.895-2.572z" class="B"/><path d="M54 127v1h13l-13-1m190 1v1l11-1h-11z" class="D"/><path d="M239 129c2.261 8.459 4.685 17.319 5.841 26 .381 2.861-.007 9.107 2.755 10.914 3.974 2.599 8.559-5.429 10.214-7.914 3.147-4.726 14.387-23.901 8.586-29.058-3.398-3.021-11.549-.935-15.681-.545-3.979.376-7.856-.372-11.715.603m-156-1-2 6c2.555-1.65 3.098-3.12 2-6z" class="B"/><path d="M45 129c.008 12.067 5.182 30.213 17 36 .811-6.385 5.053-15.674 3.388-21.895C63.665 136.668 50.662 131.358 45 129z" class="C"/><path d="m181 129-5 10c4.981-1.499 5.681-5.365 7-10h-2m47 1v3h1l-1-3z" class="B"/><path d="m245 130-3 4c3.871 5.411 10.426-1.136 3-4z" class="D"/><path d="M252 164c2.436-4.028 5.334-7.812 7.497-12 1.322-2.561 2.64-5.252 3.518-8 .874-2.733 3.298-9.695.953-12.15-3.023-3.165-16.258 6.453-17.939 9.36-2.142 3.702-.265 9.838.406 13.79.715 4.211 1.252 7.603 5.565 9z" class="C"/><path d="M62 131c-.283 3.08-.03 4.144 3 5l-3-5m19 1 1 1-1-1z" class="D"/><path d="m261 133-13.397 10.394L250 161c8.112-4.977 12.968-18.982 13-28h-2m-212 1c-1.084 9.864 3.477 22.338 12 28l4-18-12-3 1-4-5-3z" fill="#fbf9f8"/><path d="m80 134-1 8h1v-8m94 6 1 1-1-1m58 4v3c2.006-1.127 2.006-1.873 0-3m-61 2 1 1-1-1m-22 1c-.828 3.034-.869 4.499 2 6l-2-6z" class="B"/><path d="m272 147-3 9c2.772-2.561 4.316-5.279 3-9z" class="C"/><path d="m171 148 1 1-1-1m63 0 1 16h1c1.307-5.507 1.001-11.086-2-16m-159 4 1 1-1-1m-.667 4.667.334.666-.334-.666z" class="B"/><path d="M268 156v3h1l-1-3m-1 3-2 4 2-4z" class="C"/><path d="m73 161-1 46 2.366-12L75 161h-2z" class="B"/><path d="m264.333 163.667.334.666-.334-.666M263 165l1 1-1-1m-1 1 1 1-1-1m-.667 1.667.334.666-.334-.666M260 169l1 1-1-1z" class="C"/><path d="M235 170v3h1l-1-3z" class="B"/><path d="m258.667 170.333.666.334-.666-.334m-1.334 1.334.334.666-.334-.666M256 173l1 1-1-1m-1.333 1.333.666.334-.666-.334M253 175l-2 3 2-3m-3 3 1 1-1-1m-1 1-1 40h1c-.413-11.921 4.658-28.898 0-40z" class="C"/><path d="M235 200v22h1c1.326-6.789 2.729-15.829-1-22m-135 1 1 1-1-1z" class="B"/><path d="M101.001 201.651c-13.864 2.513-10.222 24.593 3.998 21.851 13.622-2.626 9.569-24.31-3.998-21.851z" class="E"/><path d="M108 201v2h2v-2h-2z" class="B"/><path d="M205.004 201.668c-14.391 4.135-8.479 25.662 5.981 21.385 13.398-3.962 7.132-25.152-5.981-21.385z" class="E"/><path d="M197 205v3h1l-1-3m-106 4-1 4h1v-4m103.333 2.667.334.666-.334-.666M73 218l-1 9h1l2-9h-2m124 0-1 3 1 1 3-1-3-3z" class="B"/><path d="M249 219v5h1l-1-5z" class="C"/><path d="m216 220 1 1-1-1z" class="B"/><path d="M250 225v28h1c1.289-9.572 3.941-18.906-1-28z" class="C"/><path d="M68 242v3h1l-1-3m4 8c-1.316 5.403 1.147 10.338 6 13l-6-13m12 3-1 4 3-4h-2z" class="B"/><path d="m249 253-2 8h1l1-8z" class="C"/><path d="M132.264 255.172c-3.163 1.628-.91 6.59 2.147 4.541 2.326-1.559.711-6.011-2.147-4.541m43.329.003c-2.911 1.697-.022 6.804 3 4.739 2.636-1.801-.364-6.276-3-4.739z" class="E"/><path d="m128 258 3-3-3 3m107-3-5 7 7-2-2-5m-133 2 1 1-1-1m1 1 1 1-1-1m-24 3 1 1-1-1m136 0 4 3-4-3z" class="B"/><path d="m246.333 261.667.334.666-.334-.666m-1 2 .334.666-.334-.666z" class="C"/><path d="M220 264c-2.331 4.45-1.736 8.305 4 7l-4-7z" class="B"/><path d="m244 265-5 8 5-8z" class="C"/><path d="M88 266c-1.486 5.089-.016 8.14 5 10l-3-3v-7h-2z" class="B"/><path d="M256 267v1h5l-5-1m-4 7h1l3-6-4 6m9-6 1 1-1-1m1 1v8h1l-1-8z" class="C"/><path d="m215 276 6-3-6 3z" class="B"/><path d="M238 273c-.142 3.945 1.117 5.358 5 6v-1l-5-5m13 1 1 1-1-1m-7 4v1l7-4-7 3z" class="C"/><path d="m95 276 1 1-1-1m1 1c3.25 2.406 6.41 3.042 10 1l-10-1m117-1-8 1v1c2.23.815 9.49 2.007 8-2z" class="B"/><path d="m261.333 277.667.334.666-.334-.666M260 279l-2 4 2-4z" class="C"/><path d="M135 285v1l60-2v-3l-30.83 3.116L135 285m-22.333-2.667.666.334-.666-.334z" class="B"/><path d="M224 283v1l12 4c-3.603-3.659-6.797-5.617-12-5z" class="C"/><path d="M122 284v1h5l-5-1z" class="B"/><path d="m257 283 1 1-1-1m-36 1v1h3l-3-1m30 3v1l6-4-6 3z" class="C"/><path d="m127.667 285.333.666.334-.666-.334M133 285l1 1-1-1z" class="B"/><path d="M216 287v1l5-3-5 2z" class="C"/><path d="M136 286v1h4l-4-1m23 0v1h6l-6-1z" class="D"/><path d="M212 288v1h4l-4-1m24 0v1h14l-14-1m-33 3v1l9-2-9 1z" class="C"/></svg>