<svg xmlns="http://www.w3.org/2000/svg" width="268" height="306" xmlns:v="https://vecta.io/nano"><path d="M0 0v306h268V0H0z" fill="#f8fcf6"/><path d="M152 255c25.244-1.992 54.368-7.182 70.579-29.015 8.35-11.245 10.023-26.38 8.233-39.985-.678-5.149-3.4-9.681-3.553-15-1.162-40.543 4.579-80.938-28.259-111.957C155.39 17.848 73.052 34.324 48.924 88 40.65 106.406 40 126.184 40 146c0 8.137 1.361 16.987.671 25-1.665 19.339-8.337 33.601 2.989 51.999 11.882 19.304 33.73 25.412 54.34 30.158 4.873 1.122 10.797.058 15.427 1.97 7.184 2.967-.557 21.049 4.102 26.644 6.393 7.677 10.835-4.375 16.856-4.163 4.5.159 6.749 6.564 11.596 6.734 9.483.333 6.019-23.404 6.019-29.342z" fill="#a2bb8a"/><path d="M122 39.424c-10.239 1.349-20.469 2.756-30 7.04-34.478 15.5-48.453 49.68-50.91 85.536-.86 12.552 1.535 24.597 1.78 37 .397 20.033-9.594 35.731 3.235 55 9.22 13.849 26.902 22.471 42.895 25.539 6.572 1.261 20.585.767 25.682 5.064 6.255 5.273-.321 17.692 3.346 24.338 5.007 9.074 11.042-4.166 16.933-3.063 4.273.8 6.244 6.627 10.996 6.385 10.894-.553.557-23.54 7.361-28.084 5.826-3.891 18.713-3.204 25.682-4.629 17.752-3.63 36.405-13.135 45.33-29.55 9.953-18.304.825-31.685 1.268-50 1.129-46.691 1.701-99.185-47.598-122.614-7.679-3.65-16.531-6.3-25-7.22-10.165-1.105-20.8-2.085-31-.742z" fill="#83645a"/><path d="M117 41.425c-9.266 1.265-18.387 4.051-27 7.665C41.299 69.52 43.81 125.68 44.74 169c.112 5.217-2.688 9.915-3.44 15-2.067 14-1.23 28.005 6.894 40C57.64 237.947 75.922 245.499 92 248.532c7.21 1.361 17.477.348 23.852 4.456 7.331 4.725.679 18.053 3.751 24.848.821 1.815 2.409 2.536 4.327 2.007 3.82-1.053 5.94-6.64 10.07-6.576 4.741.073 6.828 7.79 11.867 6.712 8.104-1.734-.996-22.446 6.281-26.966 6.265-3.892 16.753-3.165 23.852-4.477 16.907-3.124 36.109-11.236 45.286-26.536 11.569-19.288 1.299-33.528 2.094-53 1.853-45.401 2.05-99.322-47.38-120.706-7.382-3.193-15.993-5.952-24-7.005-10.823-1.423-24.19-1.34-35 .136z" fill="#452b17"/><path d="M122 47.424c-9.643 1.267-19.055 2.669-28 6.81C46.064 76.424 50.156 126.947 50.737 171c.243 18.426-10.094 32.31 2.479 49.961 17.711 24.864 59.262 27.003 86.784 25.129 6.629-.452 13.409.549 20-.39 19.239-2.743 42.844-7.823 54.791-24.701 12.614-17.821 2.651-31.339 2.68-49.999.067-43.437 5.268-95.583-43.471-116.846-6.878-3.001-14.488-5.654-22-6.179-9.932-.694-20.039-1.86-30-.55z" fill="#83645a"/><path d="M119 49.44c-8.802 1.374-17.744 3.53-25.83 7.305C47.984 77.845 51.868 127.333 52 169c.056 18.172-9.995 34.061 2.669 50.996C78.611 252.014 138.327 247.56 173 241.715c19.179-3.234 44.444-14.804 46.826-36.715 1.477-13.577-4.814-25.88-3.822-39 3.01-39.809 1.476-88.528-40.004-108.641-8.259-4.005-16.974-6.13-26-7.605-9.588-1.567-21.382-1.817-31-.315z" fill="#a2bb8a"/><path d="m50 205 85 2.921L218 204c.031-11.563-3.724-21.787-3.985-33-.455-19.527 3.03-39.5-.48-59-2.574-14.305-10.448-27.266-18.535-39l-6 2 1-4c-9.482-4.857-17.285-13.07-28.005-16.072-5.847-1.637-12.019-.608-17.995-1.017C107.815 51.432 70.917 62.26 57.95 100c-8.22 23.929-3.3 46.829-3.74 71-.22 12.076-6.58 21.23-4.21 34z" fill="#82e57f"/><path d="M80 157.573c-17.14 2.452-12.696 27.71 4.996 25.238 15.947-2.228 10.66-27.478-4.996-25.238m105-.114c-16.83 2.411-13.536 28.454 4 25.628 16.084-2.592 11.373-27.83-4-25.628z" fill="#a2bb8a"/><path d="M79 159.657c-14.463 4.342-8.106 25.763 6 21.77 13.779-3.901 7.62-25.859-6-21.77m104.004-.003c-13.793 4.294-6.941 26.893 6.995 21.743 13.341-4.93 6.417-25.919-6.995-21.743z" fill="#83645a"/><path d="M79.015 161.576c-12.207 3.427-6.198 21.75 5.942 17.91 11.616-3.674 5.717-21.183-5.942-17.91m104.99-.003c-11.432 2.257-7.583 20.56 3.994 18.529 12.518-2.196 8.581-21.011-3.994-18.529z" fill="#452b17"/><path d="M50 205c11.928 37.228 57.352 37.656 90 37.014 11.582-.228 23.922.21 35-3.269 14.378-4.515 47.272-13.925 42-35.745-9.973 1.817-21.525-.628-32 .09-21.89 1.499-43.048 5.346-65.039 3.895C96.097 205.411 73.769 200.587 50 205z" fill="#f8fcf6"/><path d="M110.148 210.758c-6.247 2.6-1.927 12.261 4.624 9.344 6.267-2.791 1.755-11.999-4.624-9.344z" fill="#a2bb8a"/><path d="m115 210 1 1-1-1m37.667.333.666.334-.666-.334z" fill="#82e57f"/><path d="M154.059 210.617c-6.788 1.671-3.756 11.165 2.922 9.855 7.686-1.507 4.249-11.621-2.922-9.855z" fill="#a2bb8a"/><path d="m150 211 1 1-1-1z" fill="#82e57f"/><path d="M110.603 213.046c-2.787 2.113-.123 6.769 3.094 4.868 3.688-2.179.251-7.402-3.094-4.868M152 213c2.47 11.844 11.812-2.458 0 0z" fill="#83645a"/><path d="m110 218 5-5-5 5m45-5v5h2v-5h-2z" fill="#452b17"/><path d="m125 267 9-4 8 4c.952-3.222 2.309-9.446-.028-12.397-2.265-2.859-13.666-2.653-15.945.139-2.325 2.849-1.308 8.887-1.027 12.258z" fill="#83645a"/><path d="m142 263-1-8c-3.42-.635-20.048-.837-12.969 7.34 1.325 1.53 11.809 1.08 13.969.66z" fill="#a2bb8a"/><path d="m130 256-1 5 9-1v-4h-8z" fill="#f8fcf6"/></svg>