<svg xmlns="http://www.w3.org/2000/svg" width="322" height="289" xmlns:v="https://vecta.io/nano"><style><![CDATA[.B{fill:#bea49f}.C{fill:#8b5e2a}.D{fill:#fefdfa}.E{fill:#4c1909}.F{fill:#f4cb11}]]></style><path d="M0 0v289h322V0H0z" class="D"/><path d="M52 172c-4.341-1.618-10.24-4.278-14.895-2.396-4.058 1.641-6.027 7.572-2.587 10.796 6.425 6.023 14.904.668 19.482 10.6-5.011 1.051-13.663 2.724-17.696 5.858-4.355 3.384-2.167 9.663 2.711 11.078 6.114 1.773 13.032-5.849 18.57-1.332 4.164 3.396 5.923 10.09 9.248 14.306 6.895 8.746 16.285 15.964 26.167 21.023 33.619 17.21 76.409 16.614 113 11.883 20.156-2.607 42.216-11.929 56.789-26.244 5.824-5.722 9.25-16.444 15.436-20.954 5.655-4.123 20.575 7.862 22.413-3.792 1.587-10.06-14.524-6.436-17.382-13.11-1.135-2.65 1.751-4.544 3.788-5.429 3.917-1.702 10.134-.598 13.214-3.876 6.518-6.936-3.446-11.697-9.258-10.82-2.678.404-5.339.908-8 1.409-.62-14.445-4.613-28.226-8.542-42-1.496-5.246-6.752-11.536-6.607-17 .112-4.217 4.766-7.935 7.144-11.08 4.277-5.657 7.222-11.772 7.831-18.92 2.236-26.236-37.355-46.517-59.826-41.7-8.154 1.747-14.617 9.388-17.741 16.7-1.71 4.002-1.903 12.528-7.367 13.258C177.793 72.944 154.541 63.754 135 72c-2.476-11.957-7.304-24.864-19-30.467-17.953-8.6-49.103 7.882-58.366 23.47-6.222 10.473-5.98 22.692.625 32.997 2.67 4.165 9.538 8.746 9.543 14.004.006 5.801-5.23 12.444-6.964 17.996-4.256 13.632-7.043 27.799-8.838 42z" class="B"/><path d="M101 41.465C81.307 44.974 50.714 60.797 55.666 85c1.245 6.083 3.475 11.11 7.349 15.985 2.286 2.878 6.88 6.176 7.36 10.03.642 5.164-4.976 13.137-6.799 17.985-4.657 12.391-3.583 28.442-9.09 39.941-3.87 8.081-17.81-2.092-19.654 6.177-2.264 10.15 23.794 2.213 20.431 14.775-1.71 6.387-21.29 5.293-18.917 12.883 2.395 7.667 17.903-2.715 23.02 2.543 9.269 9.524 13.003 20.969 24.634 29.111 35.623 24.935 90.332 23.451 131 15.12 17.36-3.556 35.554-11.603 47.91-24.565 5.392-5.656 7.897-14.536 13.48-19.537 5.796-5.19 16.499 4.479 20.898-1.766 5.513-7.827-17.468-7.311-17.027-14.971.625-10.88 19.872-3.748 19.872-12.711 0-9.009-15.339.454-18.569-6.148-3.377-6.905-2.657-16.418-4.462-23.852-2.717-11.185-7.799-21.17-11.172-32-2.062-6.619 6.623-11.941 9.73-17 8.208-13.361 5.56-29.51-6.675-39.485-14.201-11.579-41.158-25.146-56.517-8.34-5.02 5.491-5.662 20.788-11.612 23.704-4.34 2.127-13.991-1.456-18.856-1.79-14.901-1.02-30.532 3.27-44.981 2.13-6.589-.52-6.493-11.582-8.664-16.219-4.828-10.312-15.784-17.599-27.355-15.535z" class="C"/><path d="M35 175c3.35 5.288 30.152 6.088 21.254 17.61C51.292 199.035 41.01 194.805 38 203c6.24 1.716 15.654-4.088 20.776-1.037 4.78 2.847 7 11.653 10.275 16.126 6.395 8.733 15.288 15.665 24.949 20.484 39.04 19.472 93.12 19.224 134 5.829 13.513-4.428 26.467-12.092 35.846-22.841 4.35-4.986 7.463-16.455 13.262-19.339 5.485-2.727 13.58 2.592 19.892.778-2.749-7.482-10.556-4.121-15.852-8.514C267.403 183.083 296.28 179.442 300 175c-5.319-1.882-15.392 1.62-19.262-2.529-3.938-4.222-3.257-14.071-3.908-19.471-1.137-9.432-4.689-19.084-7.801-28-1.427-4.09-6.96-10.6-5.703-14.996 1.282-4.482 7.176-8.128 9.784-12.008 7.116-10.59 7.424-24.926-.999-34.826-9.664-11.36-29.755-22.2-45.111-19.554-9.702 1.672-15.63 7.227-19.225 16.384-2.307 5.878-.409 14.304-8.776 14.938-14.409 1.09-29.087-4.258-43.999-2.767-6.276.627-15.769 5.143-21.853 2.341-5.551-2.556-5.58-17.24-9.618-22.508-13.103-17.094-39.679-5.697-53.24 4.833C58.581 65.93 52.562 81.252 60.633 95c2.793 4.757 10.598 9.808 11.66 15.09.88 4.387-3.958 10.905-5.58 14.91-3.75 9.259-7.115 20.079-8.424 30-.683 5.181.594 13.624-3.607 17.552-4.34 4.056-14.063.787-19.682 2.448z" class="E"/><path d="M101 49.464C87.708 51.79 69.108 60.412 64.26 74c-3.082 8.64 2.558 29.709 14.74 28.353 4.37-.486 7.844-5.027 11.17-7.516 6.64-4.969 14.142-8.95 21.83-12.027 3.696-1.48 9.579-2.891 11.254-6.919 5.51-13.253-9.347-28.687-22.254-26.427m126.001.066c-9.09 2.067-21.734 19.964-13.259 28.63 6.378 6.523 20.324 9.053 28.258 14.165 4.637 2.987 10.815 11.43 16.961 9.964 11.205-2.674 16.298-21.046 11.75-30.285-6.192-12.582-29.668-25.667-43.71-22.474z" class="C"/><path d="M66 76h1c6.403-11.965 21.357-21.604 35-23-11.589-4.513-32.73 12.761-36 23z" class="B"/><path d="m85 94-4 2c-1.578-4.2-4.753-8.272-4.152-13 1.178-9.263 16.2-19.064 25.152-18.798 5.648.168 13.426 6.971 11 12.798 13.883 4.218 5.727-18.225-.44-22.351C98.442 45.202 65.63 64.718 66.059 81c.259 9.863 10.418 24.698 18.941 13z" class="F"/><path d="M106 52v1h5l-5-1m119 0v1h4l-4-1z" class="B"/><path d="M222 78c-3.024-23.357 31.346-10.725 36.258 3 1.981 5.536-1.964 10.31-4.258 15l-3-2c8.065 13.387 20.253-6.704 18.503-16-2.807-14.911-32.438-32.237-46.46-23.5-8.474 5.28-13.301 20.802-1.043 23.5z" class="F"/><path d="M234 52v1h4l-4-1m-122.333 1.333.666.334-.666-.334M222 53v2l2-2h-2m17 0v1l4 1v-1l-4-1m-126 1 3 3-3-3m108 1 1 1-1-1m22.667.333.666.334-.666-.334m-24 1 .666.334-.666-.334m27 0 .666.334-.666-.334M116 57l1 1-1-1m102.333.667.334.666-.334-.666m31.334-.334.666.334-.666-.334m-132.334 1.334.334.666-.334-.666M251 58l1 1-1-1m-33.667 1.667.334.666-.334-.666m35.334-.334.666.334-.666-.334m2 1 .666.334-.666-.334M118 61l1 1-1-1m138 0 1 1-1-1m-136.667 1.667.334.666-.334-.666M216 62l1 1-1-1m41 0 1 1-1-1m1.667 1.333.666.334-.666-.334z" class="B"/><path d="m81 96 34-19c-4.904-20.4-33.193-12.713-38.106 4-1.6 5.442 1.615 10.436 4.106 15z" class="D"/><path d="m120.333 64.667.334.666-.334-.666M215 64l1 1-1-1z" class="B"/><path d="M254 96c10.582-15.23-4.642-35.314-22.999-31.718-5.073.994-13.055 8.91-7.679 13.799 4.094 3.724 10.903 5.503 15.678 8.424 5.059 3.095 9.767 6.696 15 9.495z" class="D"/><path d="m261 64 1 1-1-1m1 1 1 1-1-1m-48 1v4h1l-1-4m50 1 1 1-1-1m-143 1v7h1l-1-7m144.333.667.334.666-.334-.666M266 70l3 4-3-4m-51.667 4.667.334.666-.334-.666M269 74v4h1l-1-4m-148.667 1.667.334.666-.334-.666M215 76l1 1-1-1M65 77v8h1l-1-8m17 21 38-20c-10.888-3.903-32.06 11.743-38 20m134-21v1l36 19c-5.3-10.46-24.685-19.075-36-20z" class="B"/><path d="M153.999 78.468c-22.621 1.602-47.317 9.083-64.423 24.42-4.951 4.44-12.504 11.236-13.818 18.111-1.719 8.992 17.227 9.104 13.762 17.381-4.162 9.942-15.122-4.852-20.666 1.939-3.949 4.837-9.066 28.049-4.112 32.823 3.881 3.74 14.806-.929 15.033 6.858.264 9.064-14.709 2.38-15.373 11.019-1.314 17.089 18.276 34.618 31.598 41.567 34.311 17.899 81.924 19.136 119 9.49 19.055-4.957 37.802-14.161 48.821-31.076 3.655-5.611 8.121-13.97 7.027-20.941-1.168-7.443-15.316-1.198-15.096-10.058.201-8.118 11.964-3.498 15.645-7.519 4.661-5.092-.969-25.898-4.035-31.334-5.011-8.885-16.411 7.465-20.935-2.257-3.787-8.135 13.739-9.126 13.646-16.906-.071-5.877-6.751-12.3-10.673-16.097-12.394-11.999-27.923-18.98-44.4-23.399-7.419-1.99-18.276-5.103-25.956-4.171-4.764.578-6.895 7.556-3.441 10.94 4.772 4.674 19.602-2.478 20.815 6.767 1.312 9.997-18.816 2.474-21.814 10.034-4.759 12.002 13.189 7.03 13.189 14.98 0 7-9.875 4.371-12.809 8.279-2.119 2.822-2.478 8.635-7.23 8.501-4.622-.13-4.785-5.675-6.89-8.501-3.069-4.121-10.73-1.03-12.251-7.333-1.997-8.268 15.495-3.901 12.913-14.966-2.418-10.363-18.816.04-22.068-9.232-3.371-9.607 16.567-5.293 20.108-8.39 5.289-4.628.233-11.34-5.567-10.929z" class="C"/><path d="m270 80 1 1-1-1m-118 1v1l7 1-22 9c6.558-3.296 13.648-.828 19.771-3.603 7.354-3.334-.832-7.35-4.771-7.397m42 8v-1c-3.82-.164-23.365-4.014-11-6-3.877-1.57-10.072 2.243-5.396 5.972C180.995 90.676 189.847 89 194 89m-51-7v1h6l-6-1z" class="B"/><path d="M78 123c5.231 3.718 24.782 17.388 7.995 21.551-4.595 1.14-10.671-4.898-14.406-2.468-3.691 2.4-5.362 18.594-5.48 22.912-.295 10.808 16.214 3.962 17.229 15.006.933 10.15-12.353 5.857-14.645 11.433-1.76 4.284 1.941 11.881 4.04 15.476C80.346 219.944 91.363 226.004 104 233c1.608-35.181 41.715-72.493 77-63.485 18.898 4.824 35.438 25.102 44.204 41.485 3.597 6.722 7.031 15.471 4.796 23 18.998-10.093 34.9-20.982 38-44-6.919-1.289-24.193-7.54-11.815-15.991 3.724-2.542 10.999-.455 12.882-5.157 2.954-7.374-2.654-20.353-4.067-27.852-5.122.667-10.296 4.871-15.572 3.908-17.191-3.138 3.858-18.789 8.572-21.908-9.771-22.641-33.875-32.049-56-37.475-4.153-1.018-20.934-6.533-23.824-1.98-1.814 2.858 3.313 3.34 4.829 3.475 6.063.538 17.031 1.214 16.093 9.98-1.082 10.107-15.152 7.71-22.098 9v6c6.502.535 18.933 5.642 11.682 13.852-3.054 3.458-7.778 2.303-10.955 5.086-3.462 3.033-3.108 8.597-8.731 9.52-6.791 1.114-7.66-6.319-11.555-9.52-3.996-3.282-14.241-2.66-12.474-10.937 1.223-5.732 15.362-7.755 13.371-12.587-2.918-7.083-25.108 2.743-21.86-12.41C139.086 82.832 155.444 91.846 159 83c-7.838-2.316-17.223.243-25 2.13-21.144 5.128-47.794 15.495-56 37.87z" class="F"/><path d="M185 82v1h8l-8-1m-55 3v1l12-2-12 1m63-2v1l12 2-12-3m76 0v3h1l-1-3M66 85l1 4h1l-2-4m60 1v1h3l-3-1m80 0v1h4l-4-1m-83.333 1.333.666.334-.666-.334m90 0 .666.334-.666-.334m55.666.334.334.666-.334-.666M120 88l1 1-1-1m95 0 1 1-1-1M68.333 89.667l.334.666-.334-.666m49.334-.334.666.334-.666-.334m78 0 .666.334-.666-.334M217 89l1 1-1-1m50 0 1 1-1-1m-152.333 1.333.666.334-.666-.334M197 90l1 1-1-1m23.667.333.666.334-.666-.334m45.666.334.334.666-.334-.666M110 93l3-2-3 2m113-2 1 1-1-1M69 92l1 1-1-1m129 0 1 1-1-1m26.667.333.666.334-.666-.334m40.666.334.334.666-.334-.666M70 93l1 1-1-1m38.667.333.666.334-.666-.334m27.666.334.334.666-.334-.666m90.334-.334.666.334-.666-.334M71 94l1 1-1-1m35 0 1 1-1-1m122.667.333.666.334-.666-.334M264 94l1 1-1-1M72.333 95.667l.334.666-.334-.666M104 95l1 1-1-1m95 0v3h1l-1-3m32 0 1 1-1-1m32 0 1 1-1-1m-160 1 1 1-1-1m33 0v4h1l-1-4m96 0 1 1-1-1m30 0 1 1-1-1M73.667 97.333l.666.334-.666-.334M101 97l1 1-1-1m133 0 1 1-1-1m18.667.333.666.334-.666-.334M261 97l1 1-1-1M75 98l1 1-1-1m6 0 1 1-1-1m18 0 1 1-1-1m136.667.333.666.334-.666-.334M254 98l1 1-1-1m2 2v1l5-3-5 2M76 99l1 1-1-1m4 0 1 1-1-1m15 3 4-3-4 3m142-3 2 2v-2h-2m18 0 1 1-1-1m-177.333 1.333.666.334-.666-.334M198 100l1 1-1-1m-61 1 1 1-1-1m103 0 1 1-1-1m-146.333 1.333.666.334-.666-.334m45 0 .666.334-.666-.334M196 102l1 1-1-1m46 0 1 1-1-1m-150 1 1 1-1-1m48 0 1 1-1-1m55 0 1 1-1-1m48.333.667.334.666-.334-.666M91 104l-1 2h2l-1-2m50.667.333.666.334-.666-.334M193 104l1 1-1-1m-35.333 1.333.666.334-.666-.334M177 105v1h3l-3-1m67.667.333.666.334-.666-.334M89 106l1 1-1-1m70 0v5h1l-1-5m17 0v6h1l-1-6m70 0 1 1-1-1m-158 1 1 1-1-1m159.333.667.334.666-.334-.666M87 108l1 1-1-1m-1 1 1 1-1-1m163 0 1 1-1-1m-164 1 1 1-1-1m165 0 1 1-1-1m-165.667 1.667.334.666-.334-.666M158 111l-5 1v1l5-2m19 1v1h5l-5-1m74 0 1 1-1-1m-168 1 1 1-1-1m66 0 1 1-1-1m36 0 1 1-1-1m67 0 1 1-1-1m-170 1 1 1-1-1m66 0 1 1-1-1m105 0 1 1-1-1m-172 1 1 1-1-1m66 0 1 1-1-1m41 0 1 1-1-1m-42 1 1 1-1-1m43 0 1 1-1-1m65 0 1 1-1-1m-174 1 1 1-1-1m65 0 1 1-1-1m45.333.667.334.666-.334-.666M255 117l1 1-1-1m1.333 1.667.334.666-.334-.666M79 119l1 1-1-1m65 0v4h1l-1-4m-66 1 1 1-1-1m179.333.667.334.666-.334-.666m-180 1 .334.666-.334-.666M258 122l1 1-1-1m-180 1 1 1-1-1m112.333.667.334.666-.334-.666M257 123l1 1-1-1m-178 1 4 3-4-3m66 0 1 1-1-1m109 2 3-2-3 2m-108-1 1 1-1-1m43 0 1 1-1-1m-41.667 1.667.334.666-.334-.666M188 126l1 1-1-1m64.667.333.666.334-.666-.334M84 127l1 1-1-1m103 0 1 1-1-1m63.667.333.666.334-.666-.334M86 128l1 1-1-1m63 0 1 1-1-1m36.667.333.666.334-.666-.334M249 128l1 1-1-1m-162 1 1 1-1-1m67 0v1l5 1-5-2m23 0v1h4l-4-1m70.667.333.666.334-.666-.334M88 130l1 1-1-1m88.333.667.334.666-.334-.666M246 130l1 1-1-1m-156 1 1 1-1-1m69 0v4h1l-1-4m86 0 1 1-1-1m-154 1 1 1-1-1m152.333 1.667.334.666-.334-.666M92 134v5h1l-1-5m83.333.667.334.666-.334-.666M160 136l1 1-1-1m1 1 1 1-1-1m13 0 1 1-1-1m-12 1 1 1-1-1m11 0 1 1-1-1m-10 1 1 1-1-1m9 0 1 1-1-1m71.333.667.334.666-.334-.666M71 140v1h4l-4-1m94 0v1h6l-6-1m97 0v1h3l-3-1m-192 1 1 1-1-1m5 0 1 1-1-1m16 0 1 1-1-1m169 0 1 1-1-1m5 0v3h1l-1-3m-189 1 1 1-1-1m168 0 1 1-1-1m14.667.333.666.334-.666-.334M69 143v4h1l-1-4m9.667.333.666.334-.666-.334M89 143l1 1-1-1m156.667.333.666.334-.666-.334m11 0 .666.334-.666-.334M80 144v1h5l-5-1m6.667.333.666.334-.666-.334m161 0 .666.334-.666-.334m6 0 .666.334-.666-.334M249 145l1 1-1-1m17 1v4h1l-1-4m-198 2-2 14h1l1-14m199 2 1 7h1l-2-7m2 9v6h1l-1-6m-204 6c.217 8.946 5.488 8 13 8v-1c-6.65-.056-9.831-1.078-13-7m159 0 1 1-1-1m-117 1 1 1-1-1z" class="B"/><path d="M108.004 166.707c-15.303 5.049-8.016 28.913 6.995 23.916 14.63-4.87 7.951-28.847-6.995-23.916z" class="C"/><path d="M114 166v1h3l-3-1m104 2 3-1-3 1z" class="B"/><path d="M221 166.657c-15.373 4.62-8.467 28.488 6.999 23.689 14.922-4.629 7.665-28.097-6.999-23.689z" class="C"/><path d="m227.667 166.333.666.334-.666-.334M105 167l1 1-1-1m12 0 1 1-1-1z" class="B"/><path d="M104 233c17.383 4.165 32.997 8.11 51 9.83 11.329 1.083 21.723-.243 33-.791 10.691-.52 20.597-2.482 31-4.855 3.416-.779 9.793-2.096 11.592-5.486 2.089-3.937-1.057-10.839-2.34-14.698-4.934-14.84-17.434-30.003-30.252-38.711-30.713-20.864-60.997-6.499-81.092 21.711-6.956 9.765-12.647 20.744-12.908 33z" class="D"/><path d="m229.667 167.333.666.334-.666-.334M104 168l1 1-1-1m14 0 1 1-1-1m98 0 1 1-1-1z" class="B"/><path d="M222.001 168.862c-13.091 3.363-7.936 23.028 4.984 19.551 12.368-3.329 7.413-22.736-4.984-19.551z" class="E"/><path d="m231 168 1 1-1-1m38 0c-2.455 4.452-6.339 3.996-11 4v1c3.92 0 13.064 1.3 11-5m-167 1 1 1-1-1z" class="B"/><path d="M108.015 169.654c-12.545 3.986-5.146 23.018 6.98 18.449 11.649-4.39 5.421-22.39-6.98-18.449z" class="E"/><path d="m120 169 1 1-1-1m95 0 1 1-1-1m-113.667 1.667.334.666-.334-.666M121 170l1 1-1-1m93 0 1 1-1-1m19 0 1 1-1-1m-20 1 1 1-1-1m21 0 1 1-1-1m-134 1 1 1-1-1m22 0 1 1-1-1m113 0 1 1-1-1m-156 1 1 1-1-1m20.333.667.334.666-.334-.666M159 189c-15.491-3.686-14.932 13.644-1 14.411 3.149.174 5.894-1.735 9-1.898 6.741-.353 11.271 3.62 17.906-.599 11.475-7.295-.789-13.42-8.906-11.914-.004-5.823-4.34-23.128-13.08-13.566-3.258 3.564-3.086 9.078-3.92 13.566m53.333-15.333.334.666-.334-.666M256 173l1 1-1-1m-176 1 1 1-1-1m43 0v4h1l-1-4m113 0v3h1l-1-3m18 0 1 1-1-1m-173 1 1 1-1-1z" class="B"/><path d="M176 192c-1.244-3.053-5.447-23.699-11.682-14.681-2.168 3.135-.769 7.401-3.06 10.579-3.007 4.171-13.3.145-12.596 7.078.324 3.188 3.536 4.98 6.342 5.63 5.954 1.377 27.08 2.359 30.944-3.025 5.604-7.81-5.966-7.032-9.948-5.581z" class="C"/><path d="m82 176 1 1-1-1m16 0v6h1l-1-6m155 0 1 1-1-1z" class="B"/><path d="m166.274 178.086-3.302 10.855-12.796 5.284 5.828 4.976 26.843-1.189 1.977-4.399-10.596-2.935-3.97-11.355-3.984-1.237z" class="E"/><path d="m252.333 177.667.334.666-.334-.666M83 178l1 1-1-1m128 1 1 1-1-1m40 0 1 5h1l-2-5m-168 1v3h1l-1-3m40 0v4h1l-1-4m113 0v3h1l-1-3m-24 2 4 7-4-7m-113 1 1 1-1-1m-17 1 1 1-1-1m40 0-3 5 3-5m113 0 1 1-1-1m18 0 1 1-1-1m-172 1 1 1-1-1m19 0 1 1-1-1m154 0 1 1-1-1m-174 1 1 1-1-1m21 0 1 1-1-1m154 0 1 1-1-1m-176 1 1 1-1-1m23 0 1 1-1-1m131 0 1 1-1-1m23 0 1 1-1-1m-186 1v1h3l-3-1m5 0v1h3l-3-1m28 0 1 1-1-1m129 0 1 1-1-1m26.667.333.666.334-.666-.334M68 198h1l1-8c-5.078-1.146-2.746 5.146-2 8m36.667-8.667.666.334-.666-.334M118 189l1 1-1-1m98.667.333.666.334-.666-.334M230 189l1 1-1-1m35 0v1h3l-1 7h1l2-7-5-1m-159 1v1l7 2v-1l-7-2m7 1v1l4-1h-4m105-1v1l10 1v-1l-10-1m10 0 1 1-1-1m38 7v3h1l-1-3m-197 2v3h1l-1-3m196.333 2.667.334.666-.334-.666M70 203l1 1-1-1m1 1 1 1-1-1m193.333.667.334.666-.334-.666M72 206l1 1-1-1m191 0 1 1-1-1m-.667 1.667.334.666-.334-.666m-189 1 .334.666-.334-.666M261 209l-2 4 2-4m-187 1 2 2v-2h-2m2.333 2.667.334.666-.334-.666m182 1 .334.666-.334-.666M77 214l1 1-1-1m1 1 1 1-1-1m179 0 1 1-1-1m-178 1 1 1-1-1m177 0 1 1-1-1m-176 1 1 1-1-1m175 0 1 1-1-1m-174 1 1 1-1-1m173 0 1 1-1-1m-172 1 1 1-1-1m171 0 1 1-1-1m-170 1 1 1-1-1m169 0 1 1-1-1m-168 1 1 1-1-1m167 0 1 1-1-1m-165.333 1.333.666.334-.666-.334M250 222l1 1-1-1m-163 1 1 1-1-1m161 0 1 1-1-1m-160 1 1 1-1-1m159 0 1 1-1-1m-158 1 1 1-1-1m157 0 1 1-1-1m-155.333 1.333.666.334-.666-.334M244 226l1 1-1-1m-152 1 1 1-1-1m150 0 1 1-1-1m-148 1 1 1-1-1m147 0 1 1-1-1m-146 1 1 1-1-1m144.667.333.666.334-.666-.334M97 230v1c41.331 17.039 100.407 24.19 141 0-5.054-1.383-13.7 4.628-19 5.958-16.144 4.05-32.427 5.487-49 6.717-16.881 1.253-37.825-2.145-54-6.779-6.453-1.849-12.335-5.945-19-6.896z" class="B"/></svg>