<svg xmlns="http://www.w3.org/2000/svg" width="268" height="246" xmlns:v="https://vecta.io/nano"><style><![CDATA[.B{fill:#e34541}.C{fill:#bea49f}.D{fill:#5a271f}]]></style><path d="M0 0v246h268V0H0z" fill="#fdfcfa"/><path d="M103 40c-5.86-3.822-11.485-8.875-19-7.786C66.256 34.784 57.11 58.445 69 72 20.44 97.79 3.53 180.142 49.09 216.339c15.429 12.258 34.9 16.478 53.91 18.845 31.725 3.949 66.103 4.271 96-9.212 50.969-22.986 52.993-88.866 24.004-130.842-7.552-10.935-20.093-14.46-28.531-23.625-4.281-4.649.855-12.918-.026-18.505-1.753-11.116-12.288-22.459-24.447-20.783-5.606.772-9.899 4.751-15 6.783-7.759-21.532-44.931-20.3-52 1z" class="C"/><path d="M103 44h-1c-8.912-11.748-25.771-11.336-33.351 2.004C65.554 51.45 65.907 58.15 67.542 64c.891 3.186 3.67 6.598 1.747 9.895C64.798 81.597 51.464 86.762 45.3 94c-14.669 17.229-21.736 48.742-20.212 71 4.875 71.178 96.982 77.761 150.911 65.235 26.793-6.222 53.265-20.428 60.65-49.235 6.715-26.195.01-66.207-17.859-87-7.882-9.171-20.868-13.096-28.172-21.648-3.299-3.863 1.912-14.996 1.077-20.352-3.175-20.351-24.848-18.879-36.696-8-10.752-24.92-40.241-22.002-52 0z" class="D"/><path d="m134 26 1 1-1-1m-14 1 1 1-1-1m21 1 1 1-1-1m-27 1 1 1-1-1m-2 2 1 1-1-1m35 1 1 1-1-1m-38 1 1 1-1-1m18 1.468c-8.266 1.39-13.888 5.935-14.826 14.532-.445 4.073 1.432 12.677-3.362 14.824-3.707 1.66-6.525-4.413-7.951-6.824-4.677-7.91-15.858-19.883-23.968-7.906-5.212 7.7.782 18.424 5.317 24.906 10.76 15.379 31.46 33.316 51.79 29.89 18.604-3.136 35.432-18.125 44.711-33.89 4.444-7.551 8.365-19.617-1.726-24.821-8.928-4.604-15.939 5.009-19.46 11.821-1.331 2.574-4.304 8.565-8.135 6.824-4.761-2.164-3.2-10.777-3.433-14.824-.556-9.626-9.59-16.106-18.957-14.532M149 34l1 1-1-1m-66.333 1.333.666.334-.666-.334m7 0 .666.334-.666-.334M108 35l1 1-1-1m60.667.333.666.334-.666-.334M175 35l1 1-1-1m-97 1 1 1-1-1m15 0 1 1-1-1m86 0 1 1-1-1m-28 1 1 1-1-1m30 0 1 1-1-1M75 38l1 1-1-1m-1 1 1 1-1-1m23 0 1 1-1-1m8 0 1 1-1-1m55 0 1 1-1-1m25 1 1 1-1-1M71 41l1 1-1-1m33 0 1 1-1-1m50 1 1 1-1-1m-84 1 1 1-1-1m32 0 1 1-1-1m53 0 1 1-1-1m-86 1 1 1-1-1m120 1 1 1-1-1m2 5 1 1-1-1M66 58l1 1-1-1m125 3 1 1-1-1M67 64l1 1-1-1m2 4 1 1-1-1m1 2 1 1-1-1m.333 2.667.334.666-.334-.666M189 72l1 1-1-1M69 74l1 1-1-1m124 0 1 1-1-1M68 75l1 1-1-1m-1 1 1 1-1-1m131 1 1 1-1-1M63 78l1 1-1-1m137 0 1 1-1-1m-14.333 1.333.666.334-.666-.334M181 80l1 1-1-1z" class="B"/><path d="M182.17 81.032c-5.384 2.894-9.599 9.713-14.17 13.794-10.173 9.084-23.992 17.382-38 17.719-14.262.343-28.365-7.94-38.83-16.895-4.259-3.643-9.693-12.472-15.34-13.593C67.257 80.356 55.084 94.32 50.468 100 25.282 130.995 24.4 190.408 61 212.37c9.917 5.951 20.843 8.912 32 11.291 34.151 7.284 79.164 6.997 110-11.288 34.622-20.53 32.986-65.393 18.83-98.373-5.367-12.506-13.887-22.66-25.83-29.385-3.9-2.196-9.235-6.054-13.83-3.583z" class="C"/><path d="m59 81 1 1-1-1m14.667.333.666.334-.666-.334M76 81l1 1-1-1m114 0 1 1-1-1M71 82l1 1-1-1z" class="B"/><path d="M76 83c-21.215 10.914-29.607 26.151-36.348 48-7.174 23.253-6.43 52.814 11.438 70.957 12.883 13.082 31.61 17.36 48.91 20.188 34.244 5.597 78.745 6.071 107.996-15.814 36.831-27.556 22.723-97.589-12.996-119.707-3.022-1.87-7.044-4.985-10.829-3.791-4.632 1.46-7.812 7.7-11.342 10.817-8.208 7.249-16.702 13.42-26.829 17.72-26.591 11.292-53.83-7.655-70-28.37z" fill="#fdfcfa"/><path d="m192 82 1 1-1-1M78 83l1 1-1-1m101 0 1 1-1-1m14 0 1 1-1-1M55 84l1 1-1-1m13 0 1 1-1-1m11 0 1 1-1-1m99 0 1 1-1-1m17 0 1 1-1-1M66 85l1 1-1-1m111 0 1 1-1-1m-95 2 1 1-1-1m-20 1 1 1-1-1m139 0 1 1-1-1m12 0 1 1-1-1M84 89l1 1-1-1m130 0 1 1-1-1m1 1 1 1-1-1m1 1 1 1-1-1m1 1 1 1-1-1M56 93l1 1-1-1m-1 1 1 1-1-1m34 0 1 1-1-1m77 2 1 1-1-1M52 97l1 1-1-1m170 2 1 1-1-1m-124 2 1 1-1-1m-59 2 1 1-1-1m67 3 1 1-1-1m120 0 1 1-1-1m-118 1 1 1-1-1m41 0 1 1-1-1m-113 1 1 1-1-1m75 0 1 1-1-1m35 0 1 1-1-1m81 0 1 1-1-1m-8 1 1 1-1-1m-77 1 1 1-1-1m-99 1 1 1-1-1m77 0 1 1-1-1m18 0 1 1-1-1m82 0 1 1-1-1m-93 1v1h5l-5-1m95 3 1 1-1-1m8 1 1 1-1-1m-190 2 1 1-1-1m-8 1 1 1-1-1m199 0 1 1-1-1m1 2 1 1-1-1m-193 1 1 1-1-1m-8 1 1 1-1-1m202 2 1 1-1-1m-203 1 1 1-1-1m196 2 1 1-1-1m2 8 1 1-1-1m8 0 1 1-1-1m-7 3 1 1-1-1m-195 4 1 1-1-1m203.333.667.334.666-.334-.666M33 147l1 1-1-1m197 0 1 1-1-1z" class="B"/><path d="M77 150.657c-16.113 4.07-12 29.285 4 26.036 16.453-3.341 11.98-30.073-4-26.036m107 0c-16.5 4.169-11.242 29.641 4.91 26.037 16.308-3.639 11.121-30.088-4.91-26.037z" class="C"/><path d="m76.667 153.333.666.334-.666-.334z" class="B"/><path d="M78 153.559c-13.138 1.568-11.034 21.3 2 20.018 13.004-1.278 11.173-21.591-2-20.018z" class="D"/><path d="m184 153 1 1-1-1z" class="B"/><path d="M185 153.573c-13.024 1.867-10.32 22.071 2.999 19.804 12.208-2.078 9.607-21.61-2.999-19.804z" class="D"/><path d="M238 153v4h1l-1-4m-152 3 1 1-1-1m109 2 1 1-1-1m-163 1v5h1l-1-5m37 0 1 1-1-1z" class="B"/><path d="M125 162.514c-11.91 2.361-42.64 14.475-29.28 31.393 9.367 11.86 33.973 11.308 47.28 8.58 4.576-.938 9.865-1.567 13.985-3.842 11.13-6.148 9.997-16.078 2.2-24.386-7.607-8.105-23.124-13.938-34.185-11.745z" class="C"/><path d="m196.333 162.667.334.666-.334-.666m-74.666 2.666.666.334-.666-.334z" class="B"/><path d="M123 165.429c-9.905 1.467-39.922 17.099-22.786 29.383 11.792 8.453 34.241 6.327 47.786 4.042 11.704-1.974 19.579-12.673 9.786-22.645-8.683-8.843-22.76-12.561-34.786-10.78z" class="D"/><path d="m135 165 1 1-1-1m103 0v3h1l-1-3m-62 1 1 1-1-1m-61 1 1 1-1-1m-90 1 1 1-1-1m8.333 3.667.334.666-.334-.666M151 171l1 1-1-1m-67 1 1 1-1-1m21 0 1 1-1-1m47 0 1 1-1-1m39 0 1 1-1-1m39.333.667.334.666-.334-.666M76 173l1 1-1-1m5 0 1 1-1-1m45 0v1l13 2-13-3m28 0 1 1-1-1m29.667.333.666.334-.666-.334M188 173l1 1-1-1m-64.333 1.333.666.334-.666-.334z" class="B"/><path d="M106 188c14.893 4.762 31.043 3.967 46 0-3.395-18.574-42.262-18.372-46 0z" fill="#d4ae32"/><path d="m34 175 1 1-1-1m67 0 1 1-1-1m19.667.333.666.334-.666-.334M100 176l1 1-1-1m16.667.333.666.334-.666-.334m24 0 .666.334-.666-.334M99 177l1 1-1-1m15 0 1 1-1-1m29.667.333.666.334-.666-.334M113 178l1 1-1-1m32 0 1 1-1-1m84 0 1 1-1-1m-118 1 1 1-1-1m35 0 1 1-1-1m14 0 1 1-1-1m-50.333 1.333.666.334-.666-.334M148 180l1 1-1-1m-40 1 1 1-1-1m53 0 1 1-1-1m67 0 1 1-1-1m-121 1 1 1-1-1m43 0 1 1-1-1m-44 1-1 3h1v-3m45 0 1 5h1l-2-5m76 0 1 1-1-1z" class="B"/><path d="m106 184 1 1-1-1m45 0 1 1-1-1z" class="C"/><path d="m162 184 1 1-1-1z" class="B"/><path d="m152.333 185.667.334.666-.334-.666M105 186l1 1-1-1z" class="C"/><path d="m105 187 1 1-1-1m57.333.667.334.666-.334-.666M107 188l1 1-1-1m42.667.333.666.334-.666-.334m-40 1 .666.334-.666-.334m38 0 .666.334-.666-.334M233 189l1 1-1-1m-202 1 1 1-1-1m81 0v1h3l-3-1m30 0v1h4l-4-1m82 0 1 1-1-1m-105 1v1h20l-20-1m-78 2 1 1-1-1m190 0 1 1-1-1m-9 1 1 1-1-1m-121 1 1 1-1-1m120 0 1 1-1-1m-178 1 1 1-1-1m60 0 1 1-1-1m117 0 1 1-1-1m-67 1 1 1-1-1m66 0 1 1-1-1m-1 2 1 1-1-1m-1 1 1 1-1-1m9 1 1 1-1-1m-188 1 1 1-1-1m10 0 1 1-1-1m167 0 1 1-1-1m-176 1 1 1-1-1m174 1 1 1-1-1m-2 2 1 1-1-1m-157 1 1 1-1-1m-10 2 1 1-1-1m163 0 1 1-1-1m-160 2 1 1-1-1m166 3 1 1-1-1m-161 1 1 1-1-1m15 0 1 1-1-1m129 0 1 1-1-1m-2 1 1 1-1-1m-123 1 1 1-1-1m121 0 1 1-1-1m-2 1 1 1-1-1m-113 1 1 1-1-1m128 0 1 1-1-1m-141 3 1 1-1-1m22 0 1 1-1-1m113 0 1 1-1-1m-107 1 1 1-1-1m80 0 1 1-1-1m-76.333 1.333.666.334-.666-.334M168 224l1 1-1-1m-97 1 1 1-1-1m29.667.333.666.334-.666-.334M162 225v1h3l-3-1m-53 1v1h3l-3-1m44.667.333.666.334-.666-.334M189 226l1 1-1-1m-112 1 1 1-1-1m107 1 1 1-1-1m-5 1 1 1-1-1m-5 1 1 1-1-1m-67 3v1h3l-3-1m47 0v1h4l-4-1m-35 1v1h10l-10-1m15 0v1h11l-11-1z" class="B"/></svg>