<svg xmlns="http://www.w3.org/2000/svg" width="278" height="278" xmlns:v="https://vecta.io/nano"><path d="M0 0v278h278V0H0z" fill="#fcfaf9"/><path d="M196 37c-8.137-3.336-13.56-11.27-22-14.802C144.635 9.905 115.853 17.986 93 38c-2.137-8.953-2.59-23.59-11.093-29.257-5.11-3.405-11.232.546-15.103 4.1C58.315 20.637 51.799 30.582 49.39 42c-1.459 6.91-1.608 18.278.561 25 2.093 6.486 7.4 14.073 6.708 21-1.266 12.673-7.244 24.919-8.49 38-1.511 15.89 2.064 32.307.657 48-1.174 13.083-7.208 26.438-3.142 40 13.77 45.922 77.679 49.962 117.316 45.285 9.402-1.109 17.714-1.626 27-3.757 19.972-4.585 41.773-13.817 49.883-34.528 6.593-16.838 1.38-28.275.207-45-1.311-18.686 1.766-37.319-.264-56-1.202-11.066-8.229-22.064-8.571-33-.453-14.464 11.78-26.117 8.216-42-2.674-11.92-8.179-23.69-17.472-31.867-3.328-2.929-9.269-7.113-13.984-5.511C198.424 10.88 197.054 28.658 196 37z" fill="#c69581"/><path d="M196 41c-7.793-6.458-14.437-13.688-24-17.652-23.6-9.782-63.834-6.573-78 17.652-5.356-7.025-4.793-29.482-15.043-31.242C62.125 6.867 50.979 37.612 50.09 50c-.563 7.855 1.574 16.692 4.37 24 1.516 3.96 4.93 8.645 4.657 13-.713 11.362-7.314 23.35-8.828 35-2.311 17.79.976 35.262-.213 53-1.121 16.741-6.892 29.275.123 46 7.118 16.971 24.348 25.648 40.801 31 32.338 10.519 76.888 9.96 109-.925 16.188-5.488 31.37-14.59 38.275-31.075 7.014-16.746.215-29.478-.976-46-1.039-14.405 2.953-29.304 1.531-44-1.411-14.586-8.929-28.979-10.051-43-.415-5.173 4.47-11.099 6.002-16 2.91-9.309 3.529-18.47 1.795-28-1.963-10.787-7.565-20.484-15.577-27.945-3.956-3.684-9.717-7.586-14.81-3.537C198.791 17.4 198.694 32.504 196 41z" fill="#79534d"/><path d="M75.996 11.652C53.577 15.632 50.391 51.128 54.3 68c1.385 5.978 6.823 12.298 6.73 18.424-.15 9.808-6.242 22.565-8.125 32.576-3.461 18.396.673 35.822-.123 54-.85 19.405-9.343 34.1 1.933 53 7.972 13.364 22.98 20.274 37.285 24.3 30.962 8.714 65.506 9.357 97 2.336 25.351-5.652 48.99-20.593 50.91-48.636.737-10.759-3.784-19.769-4.682-30s3.531-20.707 2.601-31c-.94-10.409-1.222-21.82-3.509-32-1.71-7.611-6.168-15.377-7.092-23-.847-6.998 5.394-14.265 7.067-21 4.228-17.02-.024-36.487-12.465-48.95-1.665-1.667-3.44-3.342-5.406-4.656C204.002 5.093 201.201 26.015 199.363 34c-.555 2.416-.653 7.288-4.033 7.605-3.975.373-10.12-8.52-13.331-10.74-8.976-6.207-21.004-10.563-31.999-10.85-13.276-.347-27.187 1.192-38.999 7.692-4.361 2.4-13.546 13.52-17.957 13.277-2.987-.165-3.962-4.744-4.616-6.984-1.843-6.311-2.416-24.126-12.432-22.348z" fill="#4f1105"/><path d="M210 19c-3.245 11.521-6.965 24.043-7.907 36-.763 9.688 1.376 18.271-1.394 28-2.104 7.392-7.072 20.016-15.699 13h-1c-2.87 4.659-6.486 24.454-13.703 23.673-3.37-.365-5.56-6.33-9.297-7.673-1.762 2.988-3.382 6.062-5.229 9-1.27 2.02-2.618 3.993-4.149 5.826C138.192 142.903 133.943 114.329 123 112c-7.208 20.567-15.054-9.066-18-16l-9 5c-4.227-9.556-8.958-17.388-10.675-28-1.772-10.949-.168-21.856-2.079-33-.717-4.183-2.205-19.157-7.38-19.94C69.64 19.118 61.573 33.144 59.903 38c-3.915 11.38-3.241 21.697.746 33 1.767 5.008 6.781 10.688 6.911 16 .098 3.97-2.695 8.249-3.838 12-5.475 17.963-7.164 36.302-6.706 55 .17 6.948 2.443 14.058 1.877 21-1.316 16.149-8.766 28.98-.187 45 7.181 13.41 20.557 19.81 34.295 24.421 14.993 5.031 31.356 5.579 47 5.579 25.199 0 55.415.443 76.576-15.545 22.783-17.214 14.461-36.123 12.532-59.455-1.165-14.083 3.097-28.61 1.722-43-.855-8.953-1.988-18.367-4.551-27-1.595-5.376-5.385-11.41-5.69-17-.514-9.4 8.799-21.784 10.122-32 1.722-13.304-6.218-34.076-20.711-37z" fill="#79534d"/><path d="m63 35 4-2c4.09 10.601 11.486 25.388 9.786 37-.67 4.578-3.13 11.499-7.786 13 1.798 9.655-6.31 23.992-8.196 34-3.746 19.878.668 38.433-.897 58-1.138 14.225-7.272 27.772-1.178 42 6.762 15.788 23.692 23.238 39.271 27.127 29.486 7.36 63.629 7.72 93-.382 15.837-4.368 31.12-10.74 38.586-26.745 6.206-13.302.203-26.772-1.402-40-.938-7.736 1.201-15.333 1.726-23 .772-11.261-.543-22.873-2.182-34-1.692-11.491-10.213-25.898-8.728-37-16.634-9.19-2.76-37.323 2-50l4 2c-1.876-3.488-8.396-14.912-13.486-11.914-3.791 2.234-4.621 13.86-5.499 17.914-3.372 15.571.385 32.069-5.729 47-3.15 7.694-7.425 15.24-16.286 11-2.426 5.446-6.04 23.373-14.576 21.775-3.058-.573-5.932-4.039-8.424-5.775-2.932 5.286-11.279 21.102-19 17.914-7.167-2.96-8.977-12.476-15.282-15.828-3.823-2.032-5.881 4.076-9.73 3.738C109.675 120.183 106.36 104.738 105 99c-9.717 3.708-14.749-2.746-17.672-12-4.681-14.818-2.079-29.958-5.135-45-2.083-10.252-3.436-26.712-14.904-13.004C65.686 30.912 64.321 32.888 63 35z" fill="#d75e08"/><path d="M70 84h1c10.457-15.299 4.057-35.713-4-51-16.53 9.07-5.433 39.938 3 51m151-51c-2.954 5.79-4.463 11.827-6.344 18-1.311 4.304-2.364 8.649-3.499 13-.896 3.439 1.949 21.818 8.246 17.914 2.864-1.777 4.364-6.968 5.585-9.914 4.28-10.322 8.454-32.62-3.988-39z" fill="#c69581"/><path d="m225 36 1 1-1-1z" fill="#d75e08"/><path d="m222 37-7.679 29.985L218 79h1c6.265-14.302 10.951-27.394 3-42M66 40c-9.699 8.738-2.62 30.119 4 39h1c1.258-13.988 1.129-25.376-5-39z" fill="#fcfaf9"/><path d="M196 161.787c-14.707 2.363-11.916 24.874 3 22.984 15.438-1.957 11.859-25.372-3-22.984m-110.995 1.241c-13.497 6.876-2.7 27.701 10.955 20.515 13.661-7.189 2.278-27.258-10.955-20.515z" fill="#79534d"/><path d="M86.093 163.728c-12.602 4.904-3.481 24.691 8.803 19.262 12.48-5.516 3.508-24.053-8.803-19.262m107.911.014c-13.173 5.081-4.726 24.55 7.956 19.029 12.175-5.301 4.592-23.869-7.956-19.029z" fill="#4f1105"/><path d="m163 218 6-1-4 6-1-4h-1c1.207 3.943 3.032 4.444 7 4 .226-4.381-3.037-10.216-7-5m-38 2h-1l-5 2v-5h4c-7.647-2.506-3.123 10.876 2 3z" fill="#79534d"/><path d="M119 217v5c4.249-.339 5.823-1.676 5-6l-5 1z" fill="#4f1105"/><path d="m124 216 1 1-1-1z" fill="#79534d"/><path d="m165 223 4-6c-4.648-.152-5.487 1.773-4 6z" fill="#4f1105"/><path d="m125 218 1 1-1-1z" fill="#79534d"/></svg>